<?xml version="1.0" standalone="no"?>
<!DOCTYPE svg PUBLIC "-//W3C//DTD SVG 20010904//EN"
 "http://www.w3.org/TR/2001/REC-SVG-20010904/DTD/svg10.dtd">
<svg version="1.0" xmlns="http://www.w3.org/2000/svg"
 width="656.000000pt" height="1000.000000pt" viewBox="0 0 656.000000 1000.000000"
 preserveAspectRatio="xMidYMid meet">

<g transform="translate(0.000000,1000.000000) scale(0.100000,-0.100000)"
fill="#000000" stroke="none">
<path d="M0 5000 l0 -5000 3280 0 3280 0 0 259 0 260 -46 7 c-29 4 -42 9 -33
14 17 9 49 7 67 -4 17 -10 18 534 0 552 -9 9 -9 15 0 24 17 17 15 59 -5 73
-16 12 -9 40 8 30 5 -4 9 1679 9 4389 l0 4396 -3280 0 -3280 0 0 -5000z m1062
4494 c-6 -26 -13 -38 -23 -35 -61 17 -99 7 -99 -26 0 -7 27 -31 60 -51 65 -41
84 -66 82 -112 -1 -44 -25 -76 -67 -90 -30 -10 -49 -9 -107 5 l-70 18 6 30 c3
17 8 33 11 35 2 2 27 -4 55 -14 45 -16 52 -16 65 -3 23 23 9 45 -49 78 -53 31
-86 73 -86 110 0 12 15 37 33 57 30 33 38 36 107 43 41 4 78 4 83 1 4 -4 4
-24 -1 -46z m401 31 c-15 -61 -18 -64 -81 -58 -59 5 -59 5 -87 -30 -31 -42
-35 -88 -12 -133 27 -52 68 -63 143 -39 27 9 62 -38 44 -60 -39 -47 -165 -37
-224 19 -49 47 -66 81 -66 132 0 87 61 167 141 183 42 8 145 -2 142 -14z
m3881 -22 c14 -27 69 -110 121 -185 52 -76 95 -140 95 -143 0 -4 -26 -5 -57
-3 -56 3 -59 4 -76 41 l-17 37 -85 0 -85 0 -20 -40 c-19 -36 -24 -40 -60 -40
-21 0 -41 4 -44 8 -2 4 13 39 34 78 21 38 65 120 97 182 31 61 60 112 64 112
3 0 18 -21 33 -47z m-3549 22 c70 -28 123 -127 112 -206 -14 -106 -169 -181
-278 -135 -64 27 -119 108 -119 175 0 127 159 219 285 166z m449 -7 c-3 -59
-2 -58 -48 -58 -44 0 -44 0 -51 -41 -4 -23 -6 -83 -4 -133 l4 -91 -40 0 -40 0
-3 133 -3 132 -59 0 -60 0 0 35 0 34 73 3 c39 2 108 3 152 3 70 0 80 -2 79
-17z m316 -18 l0 -40 -49 0 c-35 0 -51 -4 -55 -16 -3 -9 -6 -67 -6 -130 l0
-114 -40 0 -40 0 0 131 0 131 -45 -3 c-25 -2 -45 0 -45 4 0 4 0 20 0 37 l0 29
133 4 c72 1 135 4 140 5 4 1 7 -16 7 -38z m1010 0 l0 -40 -49 0 c-37 0 -50 -4
-55 -17 -4 -10 -6 -69 -5 -133 l2 -115 -47 -3 -46 -3 0 136 0 137 -50 -7 -50
-7 0 42 0 41 63 -4 c50 -3 193 4 230 11 4 1 7 -16 7 -38z m-3010 -6 l0 -32
-75 -7 c-63 -6 -75 -10 -75 -25 0 -10 -3 -26 -6 -35 -6 -15 0 -17 57 -14 l64
4 3 -42 c3 -41 3 -41 -30 -40 -18 0 -47 0 -65 -1 l-32 -2 6 -56 6 -55 -39 3
-39 3 -3 165 -2 165 115 1 115 1 0 -33z m2480 -1 l0 -33 -52 0 c-81 0 -98 -8
-98 -41 0 -28 1 -29 55 -29 52 0 55 -2 57 -25 0 -14 1 -30 2 -37 1 -7 -14 -13
-34 -13 -86 -4 -80 1 -80 -66 l0 -60 -42 3 -43 3 -3 165 -2 165 120 0 120 0 0
-32z m170 -123 l0 -160 -24 -6 c-58 -14 -59 -13 -58 156 0 85 1 158 1 163 1 4
19 7 41 7 l40 0 0 -160z m640 149 c0 -4 -17 -36 -39 -70 -46 -77 -91 -165 -91
-179 0 -6 25 -10 60 -10 l60 0 0 -35 0 -35 -136 0 c-105 0 -134 3 -128 13 4 6
25 37 45 67 47 69 99 164 99 180 0 8 -16 11 -50 8 l-50 -3 0 35 0 35 115 0
c63 0 115 -3 115 -6z m370 -30 l0 -41 -68 7 c-95 9 -145 -5 -166 -49 -39 -82
37 -177 117 -147 21 8 28 19 33 51 6 40 7 40 50 40 l44 0 0 -91 0 -91 -97 4
c-76 3 -109 9 -146 27 -125 61 -142 198 -36 283 39 31 84 41 201 45 l68 2 0
-40z m370 4 l0 -33 -80 0 -80 0 0 -30 c0 -30 1 -30 55 -30 54 0 55 0 55 -29 0
-29 -2 -30 -52 -33 l-53 -3 -3 -37 -3 -38 80 0 c79 0 81 -1 81 -24 0 -13 3
-31 6 -40 5 -14 -10 -16 -128 -16 l-133 0 3 168 2 167 87 2 c47 1 87 4 89 5 1
2 19 3 38 4 34 0 36 -1 36 -33z m386 9 c62 -29 82 -112 40 -172 l-23 -35 43
-51 c24 -28 44 -56 44 -63 0 -7 -17 -11 -45 -9 -40 1 -48 6 -82 47 -72 87 -69
79 -40 109 55 58 41 109 -31 119 l-42 6 0 -137 0 -136 -27 0 c-16 0 -38 -3
-50 -6 l-23 -6 0 176 0 176 101 -1 c71 0 112 -6 135 -17z m730 -29 c0 -15 1
-75 2 -133 l2 -105 72 0 73 0 -1 -35 c0 -26 -5 -35 -17 -34 -9 0 -64 1 -121 2
l-105 2 2 169 1 168 46 -2 c42 -3 45 -5 46 -32z m417 16 c121 -33 160 -181 72
-274 -36 -39 -109 -57 -211 -53 l-69 3 0 167 0 168 85 0 c47 0 102 -5 123 -11z
m-5448 -249 c15 -16 16 -22 5 -35 -18 -22 -74 -16 -78 8 -8 43 42 62 73 27z
m2785 -360 c0 -60 -3 -71 -21 -81 -16 -8 -28 -8 -46 0 -31 14 -24 37 11 33 26
-3 26 -2 26 58 0 47 3 60 15 60 12 0 15 -14 15 -70z m150 56 c0 -9 -12 -16
-32 -18 -25 -2 -33 -8 -33 -23 0 -15 7 -20 27 -20 15 0 28 -3 28 -7 0 -5 0
-13 0 -19 0 -6 -10 -10 -22 -9 -41 4 -44 -3 -4 -9 63 -10 58 -31 -8 -31 l-56
0 0 75 0 75 50 0 c37 0 50 -4 50 -14z m129 5 c19 -12 3 -33 -20 -26 -28 9 -23
-5 13 -35 25 -21 30 -31 25 -52 -9 -34 -50 -45 -84 -23 -30 20 -17 43 14 27
11 -6 25 -7 33 -2 10 6 5 14 -23 30 -38 23 -49 54 -25 78 14 14 47 15 67 3z
m168 -38 c44 51 48 48 49 -30 1 -65 -1 -73 -17 -73 -15 0 -19 7 -19 32 l0 31
-24 -22 -23 -22 -16 23 -16 23 0 -32 c-1 -26 -5 -33 -21 -33 -18 0 -20 7 -20
78 l1 77 39 -42 39 -41 28 31z m139 12 l19 -35 18 35 c9 19 24 35 32 35 20 0
19 -2 -10 -60 -14 -27 -25 -58 -25 -70 0 -14 -7 -20 -21 -20 -15 0 -19 5 -15
16 3 8 -7 38 -22 67 -15 29 -28 55 -30 60 -2 4 5 7 16 7 11 0 26 -14 38 -35z
m194 -25 c0 -4 6 -10 13 -13 8 -3 12 7 12 32 0 26 5 36 18 39 15 3 17 -5 17
-72 0 -42 -3 -76 -7 -76 -4 0 -27 19 -51 43 l-43 42 5 -42 c4 -29 2 -43 -8
-46 -22 -9 -26 2 -26 80 l0 74 35 -27 c19 -14 35 -30 35 -34z m204 22 c5 -17
12 -32 15 -32 3 0 13 17 22 38 l16 37 20 -43 20 -42 13 40 c9 27 19 40 31 40
17 0 16 -6 -8 -75 -15 -41 -30 -75 -33 -75 -4 0 -15 18 -25 40 l-18 40 -18
-40 c-10 -22 -22 -40 -27 -40 -7 0 -52 124 -52 144 0 4 8 6 17 4 10 -2 21 -18
27 -36z m296 -106 c0 -1 -29 -2 -65 -2 -36 1 -65 4 -65 9 0 4 14 37 30 74 l30
67 35 -73 c19 -40 35 -74 35 -75z m138 117 c14 -19 8 -63 -11 -75 -7 -4 -7
-11 3 -23 21 -25 -2 -40 -25 -15 -23 25 -31 25 -38 -1 -12 -44 -27 -5 -27 68
l0 76 42 -6 c24 -3 48 -14 56 -24z m164 -3 c45 -55 8 -120 -67 -120 l-45 0 0
68 c0 38 3 72 8 76 14 15 86 -2 104 -24z m-3373 -65 c0 -30 -3 -55 -6 -55 -4
0 -22 14 -40 32 l-33 32 0 -32 c0 -18 -4 -32 -10 -32 -5 0 -10 25 -10 55 0 30
3 55 6 55 3 0 17 -13 31 -30 29 -35 43 -39 36 -10 -3 11 -3 27 1 35 11 31 24
5 25 -50z m397 20 c13 -53 -31 -94 -80 -75 -44 17 -47 93 -3 109 31 12 76 -7
83 -34z m206 -10 c2 -32 7 -40 23 -40 16 0 21 8 23 43 2 23 7 42 13 42 16 0
10 -87 -7 -104 -18 -19 -28 -20 -55 -6 -15 9 -19 22 -19 67 0 64 17 63 22 -2z
m206 27 c2 -7 -8 -9 -32 -5 -31 5 -36 3 -41 -20 -10 -38 2 -50 41 -44 38 6 45
-6 14 -23 -26 -14 -73 7 -78 33 -6 32 7 63 30 74 25 11 60 3 66 -15z m132 7
c0 -5 -7 -9 -15 -9 -11 0 -15 -12 -15 -45 0 -33 -4 -45 -15 -45 -11 0 -15 12
-15 45 0 33 -4 45 -15 45 -32 0 -13 19 23 22 41 4 52 1 52 -13z m60 -45 c0
-35 -4 -54 -11 -52 -6 2 -10 7 -10 11 1 4 1 30 1 58 0 31 4 48 10 44 6 -3 10
-31 10 -61z m601 15 c-12 -19 -21 -42 -21 -51 0 -10 -4 -18 -10 -18 -5 0 -10
8 -10 18 0 9 -9 32 -21 51 -11 18 -18 36 -15 39 8 8 36 -19 36 -34 0 -8 5 -14
10 -14 6 0 10 5 10 12 0 16 34 52 38 40 2 -6 -6 -25 -17 -43z m-1751 -14 c0
-30 -4 -55 -10 -55 -5 0 -10 25 -10 55 0 30 5 55 10 55 6 0 10 -25 10 -55z
m270 45 c0 -5 -7 -10 -15 -10 -11 0 -15 -12 -15 -45 0 -25 -4 -45 -10 -45 -5
0 -10 20 -10 45 0 38 -3 45 -20 45 -11 0 -20 5 -20 10 0 6 20 10 45 10 25 0
45 -4 45 -10z m108 -2 c16 -16 15 -55 0 -61 -10 -4 -10 -7 0 -18 22 -23 13
-32 -15 -14 -18 12 -28 14 -31 7 -10 -30 -22 -6 -22 43 0 54 1 55 28 55 15 0
33 -5 40 -12z m296 -10 c9 -12 16 -29 16 -37 0 -26 -32 -51 -67 -51 l-33 0 0
55 0 55 34 0 c25 0 39 -7 50 -22z m620 6 c31 -30 14 -85 -30 -98 -27 -8 -74
28 -74 56 0 50 69 77 104 42z m105 -21 l30 -38 1 38 c0 20 5 37 10 37 6 0 10
-25 10 -55 0 -30 -4 -55 -10 -55 -5 0 -19 14 -32 30 -12 17 -25 30 -28 30 -4
0 -5 -13 -2 -30 3 -23 0 -30 -12 -30 -13 0 -16 11 -16 55 0 30 4 55 9 55 5 0
23 -17 40 -37z m227 12 c1 -11 5 -28 9 -37 13 -32 -2 -48 -45 -48 l-40 0 0 56
0 55 38 -3 c29 -2 37 -7 38 -23z m2150 -214 c4 -20 2 -61 -5 -92 -6 -31 -8
-65 -4 -75 9 -25 56 -98 66 -102 4 -2 7 -8 7 -13 0 -5 22 -41 48 -81 60 -91
84 -130 117 -190 l25 -48 -74 0 c-73 0 -74 0 -90 33 -28 56 -41 67 -79 67
l-36 0 0 -153 c1 -83 -2 -163 -5 -177 -17 -82 -25 -783 -12 -1035 l4 -80 -9
70 c-14 114 -25 491 -17 620 21 372 32 741 22 748 -5 3 -45 7 -89 8 l-80 4
-24 -46 c-24 -45 -27 -47 -79 -52 -54 -6 -82 -1 -82 12 0 7 38 71 140 236 24
39 58 97 75 130 72 133 80 145 101 145 19 0 35 -18 38 -42 4 -27 16 -11 25 33
11 52 6 115 -10 125 -5 3 -9 11 -9 17 1 23 30 -27 36 -62z m637 -85 l167 1 0
-59 0 -59 -102 2 -103 2 -3 -197 c-3 -207 -1 -198 -47 -198 -8 0 -34 0 -56 1
l-41 1 6 200 7 200 -105 0 -106 0 0 53 c0 30 2 56 4 58 2 2 51 1 108 -2 56 -3
178 -5 271 -3z m-4864 -64 l-1 -64 -104 4 -104 3 0 -197 0 -198 -76 0 c-74 0
-76 1 -71 23 8 31 11 366 4 373 -3 4 -50 6 -104 6 l-98 0 3 56 4 57 274 0 274
0 -1 -63z m1259 53 c7 -3 12 -21 12 -42 l0 -38 -150 3 -150 3 0 -50 c0 -48 1
-51 28 -53 15 -1 38 -3 52 -4 14 -1 51 -2 83 -3 l57 -1 0 -45 0 -44 -107 2
-106 2 -4 -52 -4 -53 103 -2 c57 -1 123 -3 148 -3 l45 -2 3 -56 3 -57 -28 5
c-15 2 -108 7 -206 9 l-179 5 -4 240 -4 240 82 3 c95 3 307 -1 326 -7z m2392
-31 l0 -46 -145 4 -145 4 0 -53 0 -53 105 0 c100 0 105 -1 110 -22 3 -13 4
-33 3 -46 -2 -23 -5 -23 -106 -21 -56 1 -105 0 -107 -3 -2 -2 -6 -25 -9 -50
l-4 -45 75 -7 c42 -3 109 -6 150 -6 51 0 73 -4 74 -12 0 -7 1 -33 3 -57 l2
-44 -150 9 c-83 5 -177 8 -208 7 l-58 -2 0 244 0 245 205 0 205 0 0 -46z
m-3325 -41 l0 -78 93 -3 92 -3 0 80 0 79 63 -5 c34 -3 63 -7 64 -8 2 -1 6
-110 10 -243 7 -275 17 -248 -85 -235 -40 4 -52 10 -51 22 1 9 1 55 0 104 l-1
87 -90 0 -90 0 -1 -77 c-1 -43 0 -92 1 -110 l1 -32 -68 6 c-37 3 -69 6 -69 7
-4 2 -12 474 -9 478 2 1 34 4 72 6 l68 2 0 -77z m1943 36 c5 -76 7 -74 -130
-74 -149 0 -189 -13 -213 -72 -33 -76 -8 -166 58 -212 30 -22 223 -30 224 -10
1 8 2 40 4 72 2 49 5 57 18 51 9 -3 35 -9 59 -11 l42 -6 0 -118 0 -119 -122 0
c-68 0 -139 4 -158 9 -19 6 -50 12 -68 15 -34 5 -97 41 -140 80 -37 33 -64 94
-69 157 -5 47 -1 66 20 112 41 91 111 142 217 160 14 2 77 5 141 6 l115 1 2
-41z m647 -1 c32 -35 55 -90 55 -134 0 -29 -25 -88 -44 -104 -9 -7 -16 -17
-16 -22 0 -5 43 -51 95 -103 l96 -94 -82 2 -81 2 -74 75 c-40 41 -87 91 -104
110 l-31 35 35 8 c61 15 95 67 81 124 -6 25 -42 38 -129 48 l-59 7 5 -201 c2
-111 4 -201 4 -202 -1 0 -27 -2 -58 -5 l-57 -5 -3 246 c-2 136 -1 249 2 252 3
2 78 3 168 1 l164 -3 33 -37z m830 -881 c28 -34 66 -83 85 -109 19 -26 37 -47
40 -47 5 0 47 52 128 158 43 56 43 56 98 56 29 0 54 -3 54 -7 0 -16 -152 -224
-200 -273 -18 -18 -20 -35 -20 -148 l0 -127 -70 0 -70 0 6 128 c5 103 4 131
-8 143 -23 23 -122 151 -151 195 -15 22 -36 50 -47 62 -11 12 -20 24 -20 27 0
3 28 5 63 5 l62 0 50 -63z m-2870 23 c4 -12 4 -38 0 -58 l-6 -37 -122 3 c-104
2 -127 0 -157 -16 -50 -27 -72 -74 -66 -142 7 -74 10 -90 13 -86 2 2 17 -9 33
-24 33 -31 73 -40 176 -40 l71 0 7 61 c3 34 3 65 0 70 -7 11 72 1 99 -13 16
-8 17 -22 15 -120 l-3 -110 -127 1 c-70 1 -138 4 -150 6 -65 13 -87 19 -128
40 -160 81 -194 274 -69 403 55 58 135 80 291 81 109 1 117 0 123 -19z m1937
0 c2 -8 1 -33 -2 -55 l-5 -40 -73 4 c-59 2 -77 0 -93 -14 -41 -38 -22 -58 138
-142 57 -30 81 -121 44 -167 -11 -13 -11 -17 -3 -12 10 6 10 1 -2 -22 -18 -34
-90 -72 -137 -72 -17 0 -68 10 -114 22 l-82 21 10 31 c19 57 32 86 38 86 3 0
21 -7 39 -16 73 -37 151 -25 134 20 -7 18 -77 69 -109 80 -47 16 -105 86 -105
128 0 72 69 147 145 158 22 3 70 6 107 6 51 -1 68 -4 70 -16z m547 6 c43 -13
88 -74 96 -131 7 -43 -1 -66 -43 -125 -9 -13 -11 -21 -5 -17 19 12 53 -51 53
-97 0 -49 -42 -123 -78 -138 -15 -6 -96 -14 -180 -17 l-152 -6 -1 40 c0 22 -2
145 -5 273 l-5 233 143 -2 c79 -2 158 -7 177 -13z m-1876 -75 c21 -41 63 -110
93 -154 29 -43 54 -83 54 -88 0 -5 4 -9 8 -9 4 0 18 -19 31 -42 12 -24 35 -65
51 -93 16 -27 30 -53 30 -57 0 -9 -60 -10 -110 -2 -28 5 -41 15 -65 52 l-30
47 -130 3 -130 3 -19 -44 -19 -45 -65 -6 c-36 -4 -69 -3 -74 2 -6 6 14 46 49
102 87 137 201 333 224 383 10 22 19 27 38 25 21 -2 33 -17 64 -77z m843 45
c-3 -16 -6 -44 -6 -62 l0 -34 -102 2 -103 3 -1 -60 c0 -33 -1 -122 -2 -197
l-2 -138 -69 0 -70 0 6 206 6 205 -104 -2 -104 -2 -3 54 -3 54 281 0 281 0 -5
-29z m1871 -973 c-3 -10 -5 -4 -5 12 0 17 2 24 5 18 2 -7 2 -21 0 -30z m4
-198 l-11 -40 5 40 c3 22 6 72 7 110 l2 70 3 -70 c2 -38 -1 -88 -6 -110z
m-4510 81 c-14 -17 -1 -29 16 -14 17 13 28 4 20 -17 -8 -20 -44 -19 -56 2 -11
20 4 57 20 47 7 -4 6 -10 0 -18z m4489 -388 c-9 -30 -9 -29 -5 16 3 27 6 90 7
140 l2 91 3 -107 c2 -59 -1 -122 -7 -140z m-4507 212 c-4 -15 0 -20 16 -20 12
0 20 4 16 9 -3 5 -1 12 4 15 10 6 22 -29 13 -38 -11 -12 -50 -6 -62 9 -13 16
-7 45 9 45 5 0 7 -9 4 -20z m1669 -188 c14 -30 15 -38 2 -68 -8 -18 -14 -42
-14 -52 0 -31 -38 -70 -78 -81 -32 -9 -43 -7 -85 15 -27 14 -55 23 -62 20 -21
-8 -85 47 -105 90 -23 49 -26 29 -4 -26 9 -22 25 -45 35 -51 11 -5 19 -16 19
-23 0 -15 67 -46 103 -47 21 0 21 -1 -3 -10 -61 -25 -239 36 -322 111 -35 31
-41 41 -30 52 7 7 18 13 25 14 7 0 21 2 32 3 17 1 18 3 5 12 -12 9 -12 10 4 5
10 -4 30 1 43 9 13 9 29 12 36 8 7 -4 21 -6 33 -5 11 2 26 -3 32 -11 10 -11
21 -12 56 -4 46 10 76 5 76 -13 0 -5 -18 -10 -41 -10 -62 0 -44 -24 20 -28 64
-4 104 4 98 21 -2 7 -9 12 -14 12 -20 0 -26 14 -12 31 10 12 24 15 60 10 54
-7 74 8 35 26 -20 8 -32 8 -51 0 -27 -13 -33 -2 -11 21 10 9 27 12 58 8 36 -5
46 -11 60 -39z m-1660 3 c-5 -30 14 -34 34 -7 12 16 13 15 14 -5 0 -30 -31
-47 -55 -29 -13 9 -16 20 -11 39 8 34 25 36 18 2z m4048 8 c0 -30 -53 -124
-94 -167 -43 -44 -75 -56 -148 -56 -56 0 -77 15 -103 73 -13 29 -24 44 -24 35
-2 -43 49 -118 80 -118 10 0 21 -5 24 -11 5 -7 -11 -8 -47 -5 -61 6 -166 49
-174 71 -4 8 -11 15 -18 15 -21 0 -37 17 -42 43 -2 16 0 27 6 27 6 0 9 -4 6
-8 -2 -4 0 -14 5 -22 8 -11 9 -5 6 22 -6 40 3 48 53 48 22 0 30 -6 39 -32 7
-18 19 -46 27 -61 8 -16 11 -34 7 -40 -3 -7 -2 -9 2 -4 5 4 18 -1 29 -10 20
-18 21 -17 6 2 -45 59 -65 125 -37 125 8 0 8 3 -2 9 -11 7 -4 11 25 16 21 3
47 8 57 10 11 2 17 -3 17 -16 0 -16 4 -17 26 -9 43 17 56 13 48 -12 -7 -25
-24 -39 -36 -32 -4 3 -8 0 -8 -5 0 -17 45 -13 71 7 36 25 67 42 81 42 7 0 33
18 58 40 50 44 60 48 60 23z m-2282 -12 c9 -5 25 -12 35 -15 11 -4 17 -16 17
-36 0 -21 -4 -29 -12 -24 -8 5 -9 2 -5 -9 3 -9 3 -16 -1 -14 -4 1 -18 -6 -32
-16 -15 -10 -19 -17 -10 -17 10 0 7 -7 -10 -23 -29 -25 -80 -50 -88 -42 -3 3
-15 -1 -26 -9 -33 -21 -136 -41 -136 -25 0 3 26 10 58 13 53 7 60 11 101 60
25 29 50 67 55 84 6 17 15 34 20 39 5 5 6 3 2 -4 -5 -9 -2 -11 10 -6 11 4 13
8 6 11 -7 2 -12 12 -12 23 0 22 3 23 28 10z m2360 -31 c7 0 10 -5 7 -10 -4 -6
-11 -8 -16 -5 -5 4 -9 2 -9 -4 0 -6 15 -8 34 -6 20 3 38 0 42 -7 4 -7 3 -8 -4
-4 -8 5 -12 -1 -12 -14 0 -60 -182 -172 -218 -134 -11 12 -9 14 8 14 11 0 20
5 20 10 0 6 5 10 11 10 5 0 7 -5 4 -11 -4 -6 3 -5 14 3 16 9 18 14 7 16 -8 2
-12 11 -9 23 3 11 11 18 19 15 7 -3 18 2 24 10 10 11 9 14 -4 14 -19 0 -19 -2
-4 41 14 41 26 51 53 44 11 -2 26 -5 33 -5z m-644 -9 c3 -4 -6 -6 -19 -3 -14
2 -25 6 -25 8 0 8 39 4 44 -5z m-2454 -16 c-7 -8 -20 -15 -29 -15 -11 1 -8 5
9 15 32 18 35 18 20 0z m37 -11 c-3 -3 -12 -4 -19 -1 -8 3 -5 6 6 6 11 1 17
-2 13 -5z m3459 -204 c4 -69 1 -154 -10 -250 -39 -356 -51 -826 -25 -1017 7
-51 13 -225 14 -413 1 -179 4 -345 8 -370 5 -32 4 -36 -2 -14 -4 17 -14 109
-21 203 -11 141 -11 192 -1 277 7 57 10 121 7 141 -31 204 -35 287 -30 608 3
256 9 345 30 510 25 195 27 299 9 450 -5 38 -4 38 5 10 6 -16 13 -77 16 -135z
m-696 36 c0 -2 -7 -7 -16 -10 -8 -3 -12 -2 -9 4 6 10 25 14 25 6z m117 -2 c-3
-3 -12 -4 -19 -1 -8 3 -5 6 6 6 11 1 17 -2 13 -5z m-2606 -1155 c6 -13 13 -94
16 -198 7 -259 6 -278 -19 -312 -17 -23 -19 -32 -10 -38 9 -5 11 -29 6 -87 -3
-43 -6 -81 -7 -84 -2 -10 14 -140 19 -155 4 -10 0 -15 -10 -15 -9 0 -16 -4
-16 -10 0 -15 -40 -12 -42 3 -1 6 -3 30 -4 52 -9 118 -17 151 -39 175 -27 29
-25 66 7 100 18 19 18 23 5 38 -25 29 -29 59 -13 97 9 21 14 40 11 44 -2 4 -5
59 -5 122 -1 63 -6 133 -11 156 -10 47 -2 76 30 111 28 28 67 29 82 1z m3486
-121 c-2 -13 -4 -5 -4 17 -1 22 1 32 4 23 2 -10 2 -28 0 -40z m0 -110 c-2 -13
-4 -5 -4 17 -1 22 1 32 4 23 2 -10 2 -28 0 -40z m-4067 -33 c-7 -9 -15 -13
-17 -11 -7 7 7 26 19 26 6 0 6 -6 -2 -15z m3170 -369 c0 -3 -4 -8 -10 -11 -5
-3 -10 -1 -10 4 0 6 5 11 10 11 6 0 10 -2 10 -4z m67 -2 c-3 -3 -12 -4 -19 -1
-8 3 -5 6 6 6 11 1 17 -2 13 -5z m78 -4 c-3 -5 -13 -10 -21 -10 -8 0 -14 5
-14 10 0 6 9 10 21 10 11 0 17 -4 14 -10z m78 3 c-7 -2 -19 -2 -25 0 -7 3 -2
5 12 5 14 0 19 -2 13 -5z m694 -60 c-3 -10 -5 -4 -5 12 0 17 2 24 5 18 2 -7 2
-21 0 -30z m-802 7 c3 -5 1 -10 -4 -10 -6 0 -11 5 -11 10 0 6 2 10 4 10 3 0 8
-4 11 -10z m-1281 -173 c3 4 15 8 26 10 14 2 20 -3 20 -17 0 -13 -7 -20 -20
-20 -10 0 -29 -4 -42 -9 -78 -29 -95 -31 -131 -16 -43 18 -53 31 -37 50 18 21
32 18 25 -4 -3 -11 -1 -22 4 -26 7 -3 8 0 5 10 -5 13 -2 14 19 6 19 -8 28 -6
37 5 7 7 23 14 36 14 13 0 24 6 24 13 1 7 6 5 14 -5 7 -10 16 -15 20 -11z
m-216 -19 c-3 -8 -25 -14 -54 -15 -47 -1 -47 -1 -11 6 20 4 40 11 44 14 11 12
25 8 21 -5z m327 2 c-16 -4 -24 -8 -16 -9 8 0 12 -4 8 -7 -9 -9 -48 6 -42 17
4 5 23 8 43 8 l37 -1 -30 -8z m-288 -76 c33 -21 128 -31 147 -15 8 7 21 9 27
5 7 -4 9 -3 6 3 -9 14 40 26 60 15 9 -5 25 -7 37 -5 17 4 18 3 6 -6 -24 -17 9
-14 40 4 33 19 70 19 70 0 0 -8 -7 -15 -16 -15 -9 0 -12 -5 -8 -11 4 -7 1 -10
-7 -7 -8 3 -12 14 -11 24 2 10 1 16 -3 13 -3 -4 -8 -20 -10 -37 -3 -26 -1 -29
18 -25 22 5 22 5 -1 -12 -13 -9 -29 -14 -37 -11 -8 3 -14 0 -12 -7 1 -7 -10
-12 -30 -12 -17 0 -29 -4 -25 -9 3 -5 -3 -6 -13 -2 -10 4 -21 2 -25 -4 -4 -6
-35 -13 -71 -15 -35 -3 -82 -7 -104 -10 -72 -11 -105 -12 -100 -5 7 11 -115
51 -128 43 -5 -3 -7 -1 -3 5 3 6 -2 13 -11 15 -15 4 -14 5 3 6 12 0 27 7 33
15 10 12 6 15 -19 21 -17 4 -29 9 -26 12 3 4 -2 12 -12 19 -15 12 -10 13 36
14 40 0 52 -4 52 -15 0 -8 4 -15 9 -15 5 0 7 8 4 18 -4 16 2 19 48 21 33 1 60
-4 76 -15z m1920 -46 c-3 -8 -6 -5 -6 6 -1 11 2 17 5 13 3 -3 4 -12 1 -19z
m-707 -3 c35 -18 50 -43 50 -84 0 -21 -5 -31 -15 -31 -17 0 -66 28 -77 44 -4
6 -9 8 -12 6 -6 -7 26 -43 49 -56 26 -14 67 -86 55 -98 -13 -13 -30 3 -30 31
0 18 -4 24 -15 19 -10 -3 -17 3 -21 20 -5 19 -11 23 -25 19 -12 -4 -21 -1 -25
9 -5 12 -11 13 -24 6 -25 -13 -30 -13 -30 5 0 8 5 15 10 15 6 0 10 5 10 11 0
7 8 18 18 25 15 12 15 13 1 14 -9 0 -19 -7 -23 -15 -6 -17 -36 -21 -36 -5 0 6
-9 10 -20 10 -20 0 -38 25 -27 36 13 13 85 33 120 34 21 0 51 -7 67 -15z
m-209 -64 c20 -17 22 -20 8 -26 -10 -4 -14 -14 -12 -28 6 -33 -29 -62 -56 -48
-16 9 -19 16 -11 35 5 13 6 26 3 29 -6 6 28 56 38 57 4 0 17 -9 30 -19z m943
-621 c1 -275 -5 -360 -26 -360 -13 0 -9 70 5 71 10 0 10 2 0 6 -16 6 -17 75
-2 254 12 149 12 182 6 449 l-5 185 11 -155 c5 -85 11 -288 11 -450z m-644
494 c0 -19 -16 -18 -24 2 -11 27 -7 37 9 24 8 -7 15 -19 15 -26z m-350 6 c8
-5 11 -12 8 -16 -10 -9 -38 3 -38 16 0 12 10 13 30 0z m-190 -15 c0 -8 -2 -15
-4 -15 -2 0 -6 7 -10 15 -3 8 -1 15 4 15 6 0 10 -7 10 -15z m0 -35 c0 -5 -2
-10 -4 -10 -3 0 -8 5 -11 10 -3 6 -1 10 4 10 6 0 11 -4 11 -10z m226 -36 c8
-30 -1 -43 -29 -40 -34 3 -47 15 -47 40 0 30 5 33 40 28 21 -3 32 -11 36 -28z
m274 -55 c0 -34 -25 -68 -40 -53 -15 15 -24 77 -15 111 l7 28 24 -30 c13 -16
24 -42 24 -56z m-454 40 c19 -22 19 -22 -3 -8 -13 8 -23 17 -23 21 0 12 6 9
26 -13z m344 6 c11 -13 11 -20 0 -40 -26 -48 -54 -14 -34 39 8 20 18 20 34 1z
m-270 -25 c0 -5 -5 -10 -11 -10 -5 0 -7 5 -4 10 3 6 8 10 11 10 2 0 4 -4 4
-10z m1387 -32 c-3 -7 -5 -2 -5 12 0 14 2 19 5 13 2 -7 2 -19 0 -25z m-3511
-43 c13 -20 14 -27 2 -42 -14 -20 -46 -27 -65 -15 -7 4 -14 22 -17 39 -5 25
-2 33 11 36 38 10 53 6 69 -18z m2379 15 c3 -5 1 -10 -4 -10 -6 0 -11 5 -11
10 0 6 2 10 4 10 3 0 8 -4 11 -10z m-152 -14 c18 -14 23 -61 7 -71 -12 -8 9
-55 35 -77 19 -16 19 -17 2 -35 -20 -21 -50 -9 -56 23 -3 19 -3 19 18 0 11
-11 21 -16 21 -12 0 14 -27 34 -50 38 -33 4 -48 60 -26 94 9 13 16 30 16 39 0
18 9 19 33 1z m177 -58 c0 -34 -20 -108 -29 -108 -10 0 -10 112 0 132 14 26
29 13 29 -24z m110 4 c0 -14 -24 -32 -42 -32 -14 0 -18 8 -18 35 l0 36 30 -16
c17 -9 30 -19 30 -23z m987 -29 c-3 -10 -5 -4 -5 12 0 17 2 24 5 18 2 -7 2
-21 0 -30z m-1011 -50 c26 -35 12 -123 -20 -123 -17 0 -26 22 -26 63 0 70 19
95 46 60z m166 -47 c-2 -9 2 -16 8 -16 16 0 11 -33 -9 -59 -12 -16 -20 -20
-25 -12 -6 9 -11 9 -21 1 -22 -19 -31 -4 -33 50 -1 43 2 50 19 50 10 0 19 4
19 10 0 6 9 6 23 1 12 -5 21 -16 19 -25z m-262 -21 c0 -8 -4 -15 -10 -15 -5 0
-10 7 -10 15 0 8 5 15 10 15 6 0 10 -7 10 -15z m1097 -22 c-3 -10 -5 -4 -5 12
0 17 2 24 5 18 2 -7 2 -21 0 -30z m-1229 0 c2 -7 -3 -13 -11 -13 -11 0 -12
-10 -7 -47 11 -69 6 -78 -37 -67 -19 5 -21 12 -20 64 1 48 5 61 22 69 25 12
47 10 53 -6z m126 -18 c-4 -8 -8 -15 -10 -15 -2 0 -4 7 -4 15 0 8 4 15 10 15
5 0 7 -7 4 -15z m1093 -57 c-3 -8 -6 -5 -6 6 -1 11 2 17 5 13 3 -3 4 -12 1
-19z m-987 -40 c24 -40 27 -106 5 -114 -9 -4 -14 -12 -13 -18 2 -6 0 -13 -4
-14 -20 -5 -27 -1 -21 13 3 10 0 15 -8 13 -19 -4 -25 98 -8 129 17 31 26 29
49 -9z m1000 -225 c1 -295 3 -333 13 -326 4 2 7 -25 7 -61 0 -56 -3 -66 -17
-67 -16 -1 -16 -2 0 -6 17 -4 18 -12 13 -71 -3 -37 -6 -106 -7 -155 -1 -48 -6
-90 -10 -93 -5 -3 -9 -15 -9 -28 0 -28 -18 -46 -44 -45 -17 1 -18 2 -3 6 9 2
17 10 17 16 0 7 2 86 4 177 2 90 7 165 12 167 5 2 7 25 6 53 -3 32 0 50 7 50
6 0 11 5 11 11 0 5 -5 7 -11 4 -7 -5 -10 13 -11 51 0 33 0 104 -1 159 -2 198
5 405 14 405 5 0 9 -104 9 -247z m-162 182 c-3 -3 -9 2 -12 12 -6 14 -5 15 5
6 7 -7 10 -15 7 -18z m-1093 -34 c3 -5 1 -12 -5 -16 -5 -3 -10 1 -10 9 0 18 6
21 15 7z m-215 -77 c0 -31 -3 -35 -22 -32 -22 3 -26 19 -19 81 1 4 10 3 21 -3
14 -8 20 -21 20 -46z m210 40 c33 -15 36 -20 34 -53 -1 -20 -3 -37 -4 -38 -4
-4 -7 -21 -9 -41 -1 -25 -47 -50 -63 -34 -19 19 -21 109 -2 116 11 4 12 10 4
25 -11 22 -13 41 -3 41 3 0 23 -7 43 -16z m338 -44 c3 -7 0 -10 -5 -7 -6 4 -8
-4 -5 -18 4 -21 1 -25 -22 -25 -31 0 -44 36 -26 70 10 19 14 20 33 7 11 -7 23
-20 25 -27z m762 -56 c0 -41 -3 -73 -7 -71 -8 5 -5 147 3 147 2 0 4 -34 4 -76z
m-380 46 c0 -5 -5 -10 -11 -10 -5 0 -7 5 -4 10 3 6 8 10 11 10 2 0 4 -4 4 -10z
m-590 -11 c0 -6 -9 -23 -20 -37 l-21 -26 27 -23 c15 -13 24 -26 19 -31 -4 -4
-10 -1 -12 6 -3 6 -13 12 -23 12 -27 0 -40 28 -27 57 5 13 16 23 24 23 7 0 13
7 13 15 0 8 5 15 10 15 6 0 10 -5 10 -11z m627 -14 c10 -11 19 -13 27 -6 8 7
20 3 36 -12 33 -29 35 -45 10 -67 -12 -10 -23 -27 -24 -37 -3 -20 -89 -67 -94
-51 -2 5 -10 4 -18 -3 -11 -9 -14 -8 -14 7 0 13 -3 15 -11 7 -13 -13 -59 -5
-59 11 0 8 -3 7 -8 -1 -5 -7 -13 -9 -21 -3 -11 6 -6 19 23 59 21 28 42 51 46
51 5 0 11 8 14 18 5 14 14 17 36 14 23 -3 30 0 30 12 0 20 7 20 27 1z m-490
-17 c9 -11 11 -55 5 -121 -2 -13 -9 -17 -24 -15 -20 3 -23 10 -26 62 -2 32 -1
65 2 72 7 17 30 18 43 2z m357 -30 c-13 -24 -47 -58 -58 -58 -5 0 5 16 24 35
35 37 46 44 34 23z m-460 -92 c-3 -13 -1 -27 5 -31 8 -4 8 -12 1 -25 -11 -21
-8 -24 31 -33 29 -7 62 23 53 48 -8 20 29 20 46 0 19 -23 5 -48 -22 -39 -22 6
-22 6 -7 -12 22 -25 33 -93 20 -127 -10 -25 -14 -26 -61 -23 -38 3 -55 9 -66
25 -8 11 -20 21 -25 21 -6 0 4 -15 20 -32 31 -33 40 -71 20 -84 -7 -4 0 -16
19 -33 26 -24 29 -32 23 -66 -3 -22 -14 -42 -26 -49 -29 -16 -45 -33 -45 -47
0 -6 -8 -18 -17 -25 -17 -12 -17 -13 0 -10 9 1 23 8 29 14 16 16 33 15 19 -1
-14 -18 -2 -30 16 -16 10 9 13 8 13 -5 0 -9 -4 -16 -10 -16 -5 0 -10 -5 -10
-12 0 -6 7 -4 18 5 10 10 26 17 36 17 13 0 16 -5 10 -22 -3 -13 -11 -25 -15
-26 -5 -2 -6 -8 -3 -13 3 -6 0 -17 -7 -25 -11 -13 -9 -14 17 -2 16 7 32 17 36
23 5 6 8 3 8 -7 0 -10 5 -18 10 -18 6 0 10 -11 10 -25 0 -22 3 -24 18 -16 11
6 24 6 33 0 11 -7 11 -9 -5 -9 -12 0 -16 -5 -12 -16 3 -9 6 -22 6 -30 0 -8 5
-14 11 -14 5 0 7 5 4 10 -9 14 9 12 24 -2 10 -11 11 -8 4 12 -5 14 -8 35 -7
48 1 19 -3 23 -18 18 -11 -2 -17 -2 -14 1 6 6 -28 39 -47 46 -12 4 -1 27 13
27 5 0 11 -8 14 -18 9 -27 94 -66 112 -51 8 6 14 8 14 4 0 -5 9 0 20 10 11 10
20 28 20 40 0 11 5 26 12 33 6 6 8 15 4 19 -4 4 -12 1 -17 -7 -8 -11 -9 -9 -4
10 4 14 7 33 6 43 0 9 5 17 11 17 6 0 17 -8 24 -17 12 -16 13 -16 14 -2 0 10
12 19 30 23 27 5 43 26 20 26 -5 0 -10 -4 -10 -10 0 -5 -7 -10 -15 -10 -19 0
-9 26 13 35 10 4 23 -2 34 -17 10 -13 17 -17 16 -9 -2 8 5 17 14 19 13 2 16
-1 12 -15 -3 -10 3 -6 12 10 10 15 21 27 24 26 3 0 16 -14 29 -31 l25 -30 -23
7 c-15 4 -21 3 -17 -3 4 -6 -9 -9 -34 -6 -41 4 -46 0 -30 -26 7 -12 12 -12 22
-2 14 14 48 16 48 2 0 -5 7 -10 15 -10 8 0 15 -5 15 -11 0 -19 27 16 41 54 10
27 10 40 2 48 -14 14 -6 39 12 39 15 0 8 41 -8 51 -14 10 -18 67 -5 75 7 5 9
2 5 -9 -3 -9 1 -18 10 -21 11 -4 14 -2 9 9 -10 28 42 22 66 -8 15 -20 15 -22
0 -34 -26 -19 -33 -15 -26 13 5 20 3 25 -7 22 -10 -3 -15 -26 -16 -83 -2 -64
1 -81 15 -91 9 -7 14 -16 9 -20 -4 -4 -7 -2 -7 4 0 7 -4 12 -10 12 -5 0 -8
-20 -6 -45 4 -50 -15 -78 -37 -56 -9 9 -9 16 1 31 15 24 15 30 2 30 -6 0 -16
-11 -22 -25 -10 -22 -8 -28 10 -45 12 -12 23 -16 27 -10 11 17 23 11 33 -17 9
-25 10 -26 11 -6 1 13 6 22 13 20 14 -3 24 33 11 42 -5 3 -7 33 -4 66 4 37 9
55 14 47 5 -7 8 -22 7 -35 -6 -68 19 -76 80 -24 36 29 55 77 31 77 -5 0 -7 8
-4 18 3 12 -4 21 -24 30 l-28 12 28 -4 c32 -4 35 4 7 22 -28 17 -25 40 6 48
16 4 23 12 20 20 -3 8 -4 14 -2 14 3 0 12 3 22 7 12 4 15 3 10 -5 -5 -8 4 -12
29 -12 21 0 38 -6 41 -14 3 -8 13 -12 23 -9 10 3 18 -1 18 -9 0 -7 4 -21 8
-30 4 -11 3 -18 -5 -18 -6 0 -8 -5 -4 -11 3 -6 0 -15 -7 -20 -9 -6 -10 -12 -4
-16 6 -5 10 -17 10 -28 0 -11 4 -26 9 -32 5 -7 5 -13 0 -13 -5 0 -2 -5 6 -11
12 -9 13 -12 1 -16 -11 -4 -11 -7 0 -14 7 -4 10 -11 7 -14 -11 -11 -28 5 -28
26 0 10 -5 19 -11 19 -6 0 -8 -9 -3 -22 4 -13 7 -40 7 -62 -1 -24 2 -34 8 -25
17 28 24 -28 24 -193 -1 -92 3 -165 6 -162 8 5 -7 -55 -16 -64 -2 -3 0 -11 7
-19 14 -18 -2 -36 -25 -27 -15 5 -17 21 -16 98 1 50 5 93 9 96 5 3 2 13 -5 23
-11 15 -13 6 -16 -60 -6 -113 1 -357 9 -365 8 -8 6 106 -2 170 -5 39 10 42 41
5 22 -25 22 -27 6 -45 -17 -19 -17 -20 0 -29 21 -12 22 -23 1 -43 -14 -15 -14
-18 2 -33 10 -10 27 -18 38 -18 24 0 35 -33 15 -45 -16 -10 -37 -2 -41 16 -2
9 -8 11 -18 4 -12 -8 -12 -11 2 -27 8 -10 20 -31 26 -48 6 -16 11 -24 11 -17
1 15 51 16 51 1 0 -6 -6 -9 -14 -6 -26 10 -25 -20 2 -42 14 -11 30 -21 34 -21
4 0 8 -5 8 -10 0 -7 -6 -7 -20 0 -11 6 -20 8 -20 5 0 -3 -9 4 -20 15 -11 11
-20 23 -20 26 0 3 -7 12 -15 20 -11 12 -19 13 -32 4 -17 -11 -17 -11 0 -6 23
7 33 -18 19 -48 -6 -14 -6 -29 -1 -38 6 -11 4 -21 -7 -32 -8 -9 -11 -16 -5
-16 14 0 14 -27 1 -35 -6 -4 -16 -3 -23 2 -13 11 -119 9 -136 -1 -22 -14 -10
-25 16 -15 15 5 39 7 53 3 14 -4 27 -8 30 -8 3 -1 11 -5 18 -9 7 -5 12 -3 12
4 0 8 4 8 13 1 10 -9 17 -6 27 8 18 24 30 26 30 3 0 -9 3 -13 6 -10 4 3 15 2
25 -4 15 -7 19 -6 19 5 0 22 28 9 36 -16 4 -14 9 -17 17 -9 7 7 14 7 24 -1 11
-8 12 -7 7 6 -4 11 -13 15 -25 11 -15 -5 -17 -3 -12 11 4 12 3 15 -5 10 -7 -4
-12 -2 -12 3 0 6 -9 11 -19 11 -22 0 -37 17 -26 28 4 4 10 1 12 -5 6 -16 43
-17 43 -2 0 6 -7 9 -15 5 -13 -4 -14 -2 -5 14 9 16 8 20 -7 20 -12 0 -14 3 -6
11 8 8 17 8 33 -1 16 -9 19 -14 10 -20 -8 -5 -9 -10 -2 -14 6 -3 14 -1 17 5
10 16 55 2 75 -24 13 -16 15 -26 8 -34 -14 -18 -38 -16 -38 2 0 8 -4 15 -9 15
-13 0 -1 -43 16 -57 8 -6 22 -9 31 -7 15 5 15 4 1 -5 -18 -11 -119 -10 -119 2
0 5 -7 1 -16 -8 -15 -15 -18 -14 -31 5 -8 11 -20 20 -26 20 -9 0 -9 -2 0 -8 6
-4 13 -23 15 -42 2 -27 -1 -35 -14 -35 -9 0 -20 -4 -24 -8 -4 -4 -15 0 -24 8
-15 14 -20 14 -32 2 -12 -12 -17 -13 -33 -1 -10 8 -29 14 -42 14 -24 0 -31 14
-13 25 6 3 10 1 10 -4 0 -6 11 -11 24 -11 13 0 26 -6 29 -12 2 -7 8 -9 13 -5
5 4 3 12 -5 16 -7 5 -12 12 -11 17 1 5 -4 10 -12 12 -9 2 -8 0 2 -7 13 -9 13
-11 -2 -11 -9 0 -21 8 -27 18 -7 13 -13 14 -22 5 -6 -6 -18 -9 -27 -6 -10 4
-13 2 -8 -5 4 -7 1 -12 -9 -12 -20 0 -16 -32 5 -42 9 -4 2 -7 -17 -7 -37 -1
-41 -8 -15 -27 16 -12 15 -13 -6 -14 -12 0 -21 3 -21 7 1 5 1 17 0 28 -1 15
-5 12 -20 -15 -13 -24 -16 -39 -9 -47 12 -15 32 -17 23 -3 -3 6 3 10 14 10 14
0 21 -6 20 -17 0 -10 -3 -13 -6 -6 -3 9 -9 10 -23 1 -21 -13 -50 3 -50 28 0 8
-5 14 -11 14 -6 0 -9 -9 -6 -20 6 -24 1 -25 -19 -5 -9 8 -13 19 -10 24 3 5 -2
8 -12 7 -10 0 -17 6 -17 16 0 10 -5 18 -10 19 -19 1 -15 -19 8 -47 21 -25 22
-31 11 -42 -13 -12 -18 -8 -15 11 1 4 -7 3 -18 -2 -10 -6 -21 -7 -25 -4 -4 4
-27 7 -52 8 -34 0 -42 -2 -31 -10 12 -9 13 -14 2 -29 -13 -16 -14 -16 -20 3
-3 12 -11 21 -17 21 -6 0 -6 -6 2 -15 8 -9 9 -15 2 -15 -6 0 -14 5 -17 10 -4
6 -11 7 -17 4 -7 -5 -9 -1 -5 9 3 10 4 17 1 17 -2 0 -9 -12 -14 -26 -8 -21 -7
-29 7 -39 14 -11 19 -10 29 3 10 14 14 15 29 2 10 -8 21 -14 24 -12 10 5 13
-28 5 -46 -4 -9 -6 -20 -6 -25 1 -4 -5 -7 -14 -7 -11 0 -13 6 -9 19 5 16 2 18
-15 14 -12 -3 -20 0 -20 8 0 8 -5 6 -13 -5 -22 -31 -40 4 -34 65 5 44 4 49 -9
38 -10 -8 -14 -23 -11 -38 3 -13 0 -33 -7 -43 -9 -16 -7 -22 9 -34 11 -8 30
-13 42 -11 12 2 28 0 35 -4 8 -5 -6 -9 -35 -9 -40 0 -48 -3 -45 -17 2 -10 15
-18 33 -20 44 -6 42 -11 -9 -18 -25 -4 -46 -12 -46 -17 0 -6 7 -8 15 -5 8 4
17 2 20 -3 3 -5 11 -7 18 -5 7 3 26 0 42 -5 31 -10 -250 -5 -349 7 -35 4 -51
2 -57 -8 -7 -11 -9 -10 -9 5 0 16 -6 18 -45 14 -41 -5 -47 -3 -65 22 -26 36
-25 43 3 35 13 -4 17 -3 10 2 -14 10 -11 45 5 51 7 2 12 8 12 13 0 4 -7 6 -16
2 -12 -4 -14 0 -8 23 4 16 4 26 0 23 -4 -3 -9 -23 -11 -44 -6 -44 -9 -50 -24
-41 -15 10 -11 87 6 93 8 3 12 11 10 18 -3 6 4 17 14 23 19 12 19 13 -1 34
-11 12 -23 18 -27 15 -3 -4 0 -7 8 -7 11 0 11 -2 -1 -10 -11 -7 -11 -10 -2
-10 7 0 10 -5 7 -10 -5 -8 -11 -8 -19 -1 -20 17 -28 0 -10 -20 16 -17 15 -19
-1 -25 -10 -4 -26 -2 -36 4 -11 7 -20 8 -24 2 -3 -5 -12 -7 -20 -3 -9 3 -21 0
-29 -6 -10 -8 -16 -8 -25 3 -10 11 -19 13 -38 5 -21 -8 -24 -7 -20 5 4 11 1
13 -10 9 -11 -4 -14 -2 -9 5 5 8 2 10 -9 5 -9 -3 -13 -9 -8 -12 15 -11 33 -51
23 -51 -5 0 -10 -9 -10 -20 0 -10 -8 -24 -17 -29 -14 -8 -15 -13 -5 -19 19
-13 4 -41 -19 -35 -24 7 -25 -5 -1 -24 16 -13 16 -14 -3 -12 -36 2 -60 -1 -75
-11 -32 -21 16 -28 229 -35 119 -3 253 -8 299 -10 48 -3 82 0 82 5 0 6 9 10
20 10 13 0 17 -5 14 -14 -4 -12 2 -13 33 -5 53 12 103 12 83 -1 -12 -8 -12
-10 5 -10 11 0 27 4 34 9 10 6 22 5 35 -2 13 -7 69 -12 141 -13 273 -3 411 -8
422 -17 7 -5 16 -6 21 -3 5 3 24 1 43 -4 18 -5 35 -6 38 -2 8 10 71 12 71 1 0
-5 13 -6 29 -3 16 3 38 1 50 -5 11 -7 21 -8 21 -3 0 11 50 3 68 -11 8 -6 12
-5 12 4 0 9 3 10 8 3 4 -6 23 -11 42 -12 49 -2 90 -8 124 -17 21 -6 27 -5 22
4 -4 6 -2 11 3 11 6 0 11 -4 11 -10 0 -5 10 -10 23 -10 13 0 28 -5 35 -12 9
-9 12 -9 12 1 0 7 5 9 13 4 6 -4 23 -9 37 -10 14 -1 42 -6 62 -11 25 -7 40 -6
47 1 8 8 11 8 11 0 0 -11 36 -15 138 -17 30 -1 52 -6 52 -12 0 -11 -32 -11
-160 0 -36 3 -117 8 -180 11 -216 10 -335 16 -415 20 -86 5 -213 11 -395 20
-63 3 -142 8 -175 12 -71 7 -2354 13 -2438 6 -31 -3 -55 -9 -51 -14 3 -5 -1
-9 -10 -9 -8 0 -23 -3 -33 -7 -16 -6 -16 -5 -4 10 12 15 11 17 -7 17 -12 0
-24 -5 -27 -10 -4 -6 -52 -8 -128 -5 -434 16 -440 16 -449 3 -6 -10 -10 -10
-18 2 -6 10 -10 11 -10 3 0 -7 -7 -13 -15 -13 -8 0 -15 5 -15 10 0 6 -5 10
-11 10 -8 0 -8 -5 1 -15 16 -20 0 -19 -28 1 -13 9 -26 13 -29 10 -4 -3 -1 -6
5 -6 26 0 10 -18 -20 -23 -18 -3 -42 -8 -53 -12 -20 -7 -20 -6 -1 9 23 18 14
21 -15 5 -15 -8 -24 -7 -36 3 -14 12 -15 11 -5 -8 10 -19 20 -21 104 -22 51
-1 111 -3 133 -6 39 -4 39 -4 15 9 -33 18 -19 19 24 1 40 -17 52 -32 30 -40
-8 -3 -12 -2 -9 4 3 6 -1 10 -9 10 -9 0 -16 -5 -16 -11 0 -8 -4 -8 -12 -2 -8
7 -41 7 -87 2 -41 -4 -79 -5 -84 -2 -6 3 -7 1 -3 -5 5 -8 33 -11 86 -8 44 3
82 1 85 -4 6 -9 -42 -24 -67 -21 -10 1 -18 -2 -18 -7 0 -5 16 -8 35 -7 20 0
41 -3 48 -7 7 -4 -26 -7 -73 -7 -47 1 -79 4 -72 6 24 9 12 19 -18 15 -16 -2
-30 -7 -30 -11 0 -4 -25 -4 -55 -1 -45 5 -55 3 -50 -7 2 -8 1 -12 -3 -9 -5 3
-28 9 -51 15 -40 9 -41 8 -35 -12 6 -20 6 -20 -10 -4 -10 9 -32 17 -49 16 -27
0 -29 -2 -12 -9 17 -7 15 -8 -11 -7 -17 0 -36 -3 -43 -7 -15 -10 -53 3 -46 15
4 5 -1 9 -10 9 -9 0 -13 -4 -10 -10 3 -5 2 -10 -4 -10 -5 0 -13 5 -16 10 -10
16 -25 12 -25 -7 0 -11 -3 -14 -8 -7 -4 7 -27 10 -57 8 -80 -5 -157 6 -151 22
3 8 1 14 -4 14 -6 0 -10 -6 -11 -12 0 -10 -2 -10 -5 -1 -3 7 -11 10 -19 7 -7
-3 -16 -1 -20 5 -3 6 1 11 9 11 14 0 14 3 4 20 -7 11 -18 20 -24 20 -6 0 -17
7 -24 15 -11 13 -10 18 3 28 8 7 17 21 20 32 4 18 5 18 6 -2 1 -29 13 -29 26
-2 7 16 20 22 48 24 39 2 90 35 54 35 -9 0 -17 -4 -17 -9 0 -14 -77 5 -96 23
-9 9 -23 15 -31 12 -8 -3 -22 -6 -30 -6 -13 0 -13 -3 -2 -16 8 -9 21 -13 35
-10 27 7 56 -2 48 -15 -3 -5 -10 -9 -15 -9 -6 0 -7 5 -4 10 10 16 -22 11 -39
-6 -9 -8 -16 -11 -16 -5 0 6 -8 7 -17 4 -13 -5 -15 -2 -10 11 5 12 3 16 -5 13
-7 -2 -12 -10 -11 -16 4 -14 -14 -15 -22 -1 -3 6 -1 10 4 10 6 0 11 5 11 10 0
6 -9 10 -21 10 -13 0 -18 -4 -13 -12 4 -7 3 -8 -4 -4 -6 4 -36 7 -67 7 -30 1
-57 5 -60 9 -2 4 19 7 48 7 28 0 68 3 87 6 19 3 44 6 55 6 13 1 16 4 8 12 -5
5 -23 10 -39 9 -16 -1 -62 -1 -101 -1 -40 0 -73 -4 -73 -10 0 -5 -5 -9 -11 -9
-5 0 -8 4 -5 9 3 4 -6 13 -19 19 -14 7 -25 20 -25 29 0 15 2 16 10 3 5 -8 10
-10 10 -5 0 6 4 5 8 -2 5 -7 13 -9 21 -4 11 7 9 10 -8 16 -12 4 -21 15 -21 26
0 11 -4 18 -9 15 -20 -13 -16 20 4 36 18 14 29 15 55 8 23 -6 38 -6 46 1 7 6
18 8 24 4 5 -3 16 0 24 8 19 19 1 50 -25 42 -11 -4 -19 -2 -19 6 0 8 11 10 34
6 28 -4 36 -1 46 18 7 13 21 26 31 28 11 3 16 1 13 -5 -8 -13 15 -28 43 -28
l23 0 -20 33 c-24 39 -25 47 -4 47 11 0 14 6 9 20 -4 11 -2 20 4 20 6 0 11 6
11 14 0 7 14 16 31 20 49 10 72 7 66 -7 -3 -7 4 -12 19 -12 16 0 24 6 24 18 0
19 35 24 46 6 3 -6 6 -28 6 -50 -1 -24 4 -39 11 -39 9 0 9 -2 0 -8 -8 -5 -9
-13 -3 -22 7 -10 10 -11 10 -2 0 6 9 12 20 12 11 0 20 4 20 10 0 5 -8 7 -18 4
-14 -5 -15 -4 -2 5 21 15 25 14 38 -14 8 -17 8 -25 1 -25 -23 0 -3 -44 22 -51
32 -8 54 3 46 25 -3 8 0 27 7 41 12 23 14 24 21 8 6 -16 8 -15 17 7 9 24 -2
41 -36 53 -7 3 -4 12 7 25 11 11 16 26 12 31 -3 6 -2 11 3 11 6 0 8 9 5 20 -4
15 0 20 13 20 11 0 25 10 33 21 10 18 15 19 22 8 6 -10 8 -7 7 11 -3 63 1 70
32 70 39 0 38 -16 -2 -34 -18 -8 -26 -15 -18 -15 8 -1 27 5 42 13 23 12 26 12
21 0 -4 -12 18 -20 48 -16 4 1 5 -8 2 -18 -6 -22 14 -53 28 -44 5 3 7 10 4 15
-4 5 1 9 9 9 20 0 30 -17 14 -23 -8 -4 -7 -6 3 -6 26 -1 33 30 9 36 -11 3 -20
11 -20 18 0 15 71 11 101 -5 9 -5 19 -7 22 -4 3 3 16 0 29 -8 27 -15 58 -19
58 -7 0 4 -8 10 -18 12 -14 4 -14 5 3 6 11 0 28 -8 38 -19 9 -11 22 -20 29
-20 9 0 8 3 -2 10 -22 14 -5 23 20 10 27 -15 62 -5 40 11 -12 9 -12 10 3 5 10
-3 28 -6 40 -6 19 -1 18 -3 -8 -15 -37 -16 -31 -18 15 -5 25 7 36 7 42 -3 6
-9 10 -9 20 1 9 9 16 8 34 -9 18 -17 24 -18 35 -7 8 7 21 12 29 12 8 -1 21 -2
28 -3 7 0 10 -6 6 -12 -4 -8 -9 -7 -15 2 -5 8 -9 9 -9 3 0 -21 13 -24 32 -8
14 14 21 14 32 4 20 -16 72 -4 90 22 8 12 19 17 26 13 9 -5 10 -1 5 14 -8 26
2 27 23 2 10 -10 32 -22 50 -25 30 -5 33 -4 27 14 -7 22 12 27 43 11 9 -6 33
-12 53 -16 20 -3 46 -16 59 -30 27 -28 36 -30 54 -12 18 17 2 57 -21 56 -17
-1 -17 -2 0 -6 12 -3 17 -12 15 -26 -5 -33 -31 -26 -49 12 -10 21 -19 30 -23
23 -10 -17 -26 -15 -26 4 0 8 4 12 10 9 7 -4 7 2 1 18 -13 33 -2 42 20 16 12
-14 18 -16 22 -7 2 7 8 10 12 6 4 -4 2 -15 -6 -24 -13 -16 -12 -16 9 -5 27 14
27 16 2 48 -23 30 -18 43 17 43 18 0 24 -4 19 -15 -8 -23 4 -45 26 -45 12 0
17 5 13 13 -4 6 -1 5 7 -3 7 -8 31 -16 52 -18 21 -1 53 -11 71 -22 59 -36 49
-18 -14 26 -1 2 0 8 4 14 5 9 10 9 18 1 6 -6 18 -11 27 -11 10 1 6 8 -12 21
-16 11 -28 25 -28 31 0 5 -9 21 -20 35 -11 14 -20 30 -20 34 0 16 31 10 61
-12 22 -16 29 -17 29 -6 0 8 -10 22 -22 30 -13 9 -18 16 -11 16 6 1 19 -6 27
-15 9 -8 20 -13 25 -10 5 4 22 1 37 -4 38 -15 39 -8 4 31 -24 28 -26 35 -13
38 13 2 13 5 2 12 -10 6 -10 9 -1 9 6 0 12 11 12 25 0 20 4 24 23 21 12 -3 23
-5 25 -7 1 -1 8 -2 15 -3 18 -2 27 16 20 42 -4 17 -2 21 11 16 9 -3 16 -10 16
-15 0 -5 5 -9 10 -9 6 0 10 9 10 19 0 13 6 18 18 16 9 -2 17 -4 17 -5 0 -1 10
-3 23 -4 28 -3 46 17 37 44 -5 14 -2 20 9 20 11 0 16 -10 16 -33 0 -23 5 -34
15 -34 8 0 15 7 15 14 0 8 5 11 10 8 6 -3 10 1 10 9 0 9 5 16 10 16 6 0 10 -5
10 -11 0 -8 4 -8 14 0 11 10 16 9 23 -3 8 -14 11 -13 23 5 39 55 42 56 36 14
l-6 -40 16 28 c12 23 18 26 30 17 11 -10 16 -8 23 11 8 19 10 20 10 6 1 -10 6
-15 11 -12 6 3 10 -1 10 -9 0 -9 4 -16 9 -16 14 0 23 -32 11 -44 -15 -15 -12
-42 6 -60 8 -9 11 -16 5 -16 -6 0 -11 -5 -11 -10 0 -21 56 3 86 36 17 19 37
34 45 34 8 0 22 12 33 26 15 22 16 28 5 35 -11 7 -9 9 6 10 11 0 15 3 9 5 -12
5 5 74 19 74 5 0 6 -4 3 -8 -3 -5 -8 -36 -10 -70 -5 -51 -3 -60 9 -56 10 4 15
0 15 -14 0 -12 5 -24 10 -27 13 -8 13 6 0 39 -6 17 -6 26 0 26 6 0 10 -8 10
-17 0 -15 2 -16 10 -3 8 13 10 12 10 -4 0 -15 3 -16 15 -6 8 7 15 24 15 39 0
20 -2 23 -10 11 -5 -8 -13 -11 -17 -6 -4 4 0 13 10 20 9 7 17 18 17 25 0 6 5
11 11 11 6 0 9 -7 5 -15 -3 -8 -2 -15 3 -15 4 0 12 20 18 45 6 25 6 45 2 45
-5 0 -6 6 -3 14 3 9 12 12 22 8 15 -5 15 -3 4 11 -8 9 -11 21 -7 27 3 6 9 22
11 37 5 24 3 25 -12 12 -16 -13 -16 -12 -4 8 l14 21 18 -24 c19 -23 17 -71 -2
-59 -4 3 -6 -4 -3 -15 3 -12 -1 -22 -10 -26 -24 -9 -9 -44 19 -42 25 2 31 12
14 23 -13 8 14 60 35 69 13 4 13 9 3 25 -7 11 -16 17 -20 14 -10 -5 -38 15
-38 28 0 5 6 8 13 6 6 -1 11 4 9 11 -1 7 4 23 13 35 8 12 15 25 15 30 0 15
-21 -5 -30 -29 -5 -13 -14 -24 -19 -24 -6 0 0 19 12 43 14 27 30 43 45 45 17
3 22 10 22 32 0 34 -15 47 -36 29 -12 -10 -20 -9 -39 1 -28 15 -26 43 6 71 11
9 19 24 19 33 0 9 8 16 19 16 11 0 27 8 37 17 16 16 16 16 10 -5 -6 -17 -3
-22 10 -22 13 0 11 -5 -9 -23 -15 -12 -27 -27 -27 -32 0 -6 5 -3 10 5 7 11 14
12 27 4 20 -13 29 -34 14 -34 -6 0 -11 7 -11 15 0 8 -5 15 -11 15 -5 0 -7 -4
-4 -10 3 -5 1 -10 -4 -10 -20 0 -11 -39 11 -54 26 -18 38 -20 38 -7 0 5 5 22
11 38 l11 28 19 -24 19 -23 0 26 c0 23 3 25 39 22 21 -2 44 -6 50 -10 11 -7
43 13 104 67 32 28 33 34 10 34 -10 0 -24 -9 -32 -19 -13 -19 -60 -42 -68 -34
-3 2 10 12 28 22 32 16 33 17 11 25 -19 7 -22 16 -22 59 0 51 11 64 29 33 14
-26 18 -16 23 55 4 59 -3 80 -16 47 -8 -22 -33 -18 -39 6 -8 31 3 77 20 83 22
9 33 -2 33 -34 0 -27 2 -28 35 -23 24 4 35 2 35 -7 0 -7 13 2 29 19 34 37 66
42 58 10 -5 -17 -2 -20 13 -16 21 5 55 -25 43 -38 -5 -4 -2 -5 5 -1 19 11 15
86 -5 101 -16 12 -16 14 1 40 17 26 17 28 -5 51 -12 13 -30 26 -41 30 -21 6
-25 34 -4 34 19 0 30 32 14 41 -16 10 -33 -5 -33 -29 0 -26 -30 -20 -33 6 -4
28 26 65 46 57 9 -3 12 1 7 14 -4 15 0 20 17 23 20 3 23 10 26 51 2 26 7 47
13 47 5 0 7 -11 3 -24z m-144 -22 c19 -50 10 -114 -17 -114 -8 0 -12 -6 -9
-12 3 -7 9 -21 12 -30 4 -10 10 -18 15 -18 5 0 9 -26 9 -57 -1 -32 0 -67 2
-78 3 -23 -26 -31 -69 -20 -26 6 -26 6 -19 88 4 45 8 88 8 95 1 6 6 12 11 12
5 0 2 11 -7 25 -21 31 -13 115 10 115 8 0 14 5 14 10 0 21 31 9 40 -16z m926
-7 c8 3 14 0 14 -7 0 -6 8 -9 18 -6 11 4 31 -7 56 -29 36 -32 38 -36 23 -48
-11 -7 -18 -27 -19 -50 -1 -22 -8 -42 -17 -48 -14 -9 -14 -10 2 -5 11 3 17 0
17 -10 0 -11 6 -13 20 -9 11 4 20 2 20 -4 0 -6 -13 -11 -28 -11 -15 0 -32 -4
-37 -9 -6 -5 -32 -12 -60 -16 -36 -5 -46 -4 -35 4 12 9 10 11 -12 11 -18 0
-29 7 -34 22 -6 19 -7 20 -16 4 -9 -16 -11 -16 -28 4 -10 12 -16 28 -14 35 3
7 0 16 -6 20 -8 5 -7 11 2 23 11 13 10 15 -4 9 -22 -8 -23 -3 -2 22 10 11 24
17 33 14 13 -5 14 -3 4 8 -18 19 -16 31 6 27 11 -2 29 10 47 31 15 19 30 29
32 23 2 -6 10 -8 18 -5z m-3886 -25 c100 -33 187 -89 275 -177 92 -91 153
-199 181 -320 24 -107 16 -277 -20 -379 -85 -247 -301 -422 -563 -457 -333
-45 -650 167 -745 496 -28 100 -30 256 -4 355 62 234 239 415 476 487 65 20
92 22 205 20 99 -3 145 -9 195 -25z m3454 22 c27 -10 19 -41 -11 -47 -16 -3
-31 -3 -35 0 -15 8 -8 42 10 46 9 3 18 5 19 6 1 0 8 -2 17 -5z m113 -112 c14
-23 2 -45 -20 -36 -18 7 -20 14 -11 38 8 21 17 20 31 -2z m-78 -5 c13 -16 5
-27 -21 -27 -18 0 -25 20 -11 33 10 10 19 8 32 -6z m-77 -12 c0 -5 -5 -11 -11
-13 -6 -2 -11 4 -11 13 0 9 5 15 11 13 6 -2 11 -8 11 -13z m86 -76 c-1 -13
-10 -24 -18 -24 -19 0 -26 45 -8 56 18 11 30 -4 26 -32z m78 -18 c-10 -16 -36
-13 -43 5 -8 22 18 37 36 20 7 -8 10 -19 7 -25z m-282 13 c12 -32 6 -54 -14
-54 -21 0 -24 10 -14 48 7 26 19 29 28 6z m114 -7 c2 -10 -3 -17 -12 -17 -10
0 -16 9 -16 21 0 24 23 21 28 -4z m-340 -13 c15 -15 14 -18 -3 -30 -42 -31
-93 -4 -59 31 20 19 41 19 62 -1z m171 -63 c17 -70 13 -107 -15 -122 -21 -11
-27 -11 -33 0 -11 18 -23 123 -16 144 3 10 7 24 10 33 5 15 7 15 25 -1 11 -10
24 -34 29 -54z m327 -19 c-14 -14 -16 -14 -22 1 -3 10 0 24 7 33 11 14 13 14
22 -1 6 -12 4 -22 -7 -33z m-156 7 c0 -20 -15 -26 -25 -9 -9 15 3 43 15 35 5
-3 10 -15 10 -26z m-115 5 c12 -13 13 -19 4 -30 -16 -19 -39 0 -32 26 6 24 7
24 28 4z m405 1 c0 -9 -6 -12 -15 -9 -8 4 -12 10 -9 15 8 14 24 10 24 -6z
m-614 -20 c3 -8 3 -19 -1 -25 -10 -16 -35 7 -28 26 7 18 22 18 29 -1z m425
-18 c0 -7 2 -25 3 -40 2 -34 -16 -52 -40 -39 -19 11 -27 68 -13 95 8 14 14 15
29 7 11 -6 20 -16 21 -23z m-833 8 c5 -4 -27 -65 -34 -65 -4 0 -3 12 0 26 l7
25 -22 -20 c-23 -22 -39 -20 -39 5 0 11 6 13 20 9 12 -4 20 -2 20 5 0 6 -4 9
-9 6 -5 -3 -11 1 -14 8 -5 12 2 13 31 9 20 -3 38 -7 40 -8z m252 -21 c0 -8 -4
-12 -10 -9 -5 3 -10 10 -10 16 0 5 5 9 10 9 6 0 10 -7 10 -16z m648 -32 c2
-13 8 -19 14 -16 7 4 8 2 4 -4 -10 -16 -28 -15 -51 2 -17 12 -17 16 -6 30 18
21 35 16 39 -12z m-159 5 c15 -19 -12 -57 -29 -41 -12 12 -5 54 9 54 5 0 14
-6 20 -13z m-609 -57 c0 -5 -7 -10 -15 -10 -8 0 -15 5 -15 10 0 6 7 10 15 10
8 0 15 -4 15 -10z m325 -30 c3 -5 1 -10 -4 -10 -6 0 -11 5 -11 10 0 6 2 10 4
10 3 0 8 -4 11 -10z m112 -26 c1 -31 -2 -35 -20 -32 -15 2 -23 11 -25 30 -3
25 2 29 39 37 3 0 5 -15 6 -35z m1163 20 c0 -9 -7 -14 -17 -12 -25 5 -28 28
-4 28 12 0 21 -6 21 -16z m-995 -19 c0 -10 -5 -20 -11 -22 -13 -4 -27 24 -18
38 9 15 29 4 29 -16z m695 -39 c0 -3 -4 -8 -10 -11 -5 -3 -10 -1 -10 4 0 6 5
11 10 11 6 0 10 -2 10 -4z m-870 -31 c0 -8 -4 -15 -10 -15 -5 0 -7 7 -4 15 4
8 8 15 10 15 2 0 4 -7 4 -15z m183 -9 c10 -24 -18 -39 -37 -21 -9 9 -14 21
-11 26 9 14 42 11 48 -5z m-848 -26 c3 -5 1 -10 -4 -10 -6 0 -11 5 -11 10 0 6
2 10 4 10 3 0 8 -4 11 -10z m705 -40 c0 -5 -4 -10 -10 -10 -5 0 -10 5 -10 10
0 6 5 10 10 10 6 0 10 -4 10 -10z m-770 -181 c-7 -11 -14 -19 -16 -16 -7 7 7
37 17 37 6 0 5 -9 -1 -21z m-65 -106 c-4 -16 -8 -34 -8 -40 0 -7 -4 -13 -9
-13 -5 0 -6 -9 -3 -20 4 -13 1 -22 -8 -25 -7 -3 -14 -11 -14 -18 0 -7 -3 -27
-8 -46 -5 -23 -4 -31 4 -27 14 9 14 0 1 -25 -6 -10 -17 -19 -24 -19 -17 0 -15
31 7 81 15 36 15 37 -10 48 -17 8 -23 18 -21 34 2 18 8 22 37 19 29 -2 33 0
28 18 -3 11 -1 18 4 15 4 -3 11 6 15 20 3 14 8 25 11 25 3 0 2 -12 -2 -27z
m1735 -68 c0 -16 -6 -25 -15 -25 -9 0 -15 9 -15 25 0 16 6 25 15 25 9 0 15 -9
15 -25z m186 2 c1 -9 -4 -17 -11 -17 -17 0 -28 17 -20 31 9 14 28 6 31 -14z
m69 13 c3 -5 2 -16 -2 -24 -11 -20 -38 -3 -30 18 7 18 23 21 32 6z m89 1 c9
-15 -23 -36 -36 -23 -5 5 -7 15 -4 21 9 13 33 14 40 2z m76 -2 c0 11 3 11 16
0 15 -12 14 -14 -6 -23 -16 -7 -24 -6 -30 4 -5 8 -6 18 -3 23 3 5 9 3 14 -4 7
-12 9 -12 9 0z m-366 -7 c2 -4 1 -14 -4 -22 -7 -11 -12 -12 -21 -3 -6 6 -8 16
-5 22 8 13 23 14 30 3z m63 -9 c4 -11 -26 -27 -35 -19 -2 3 -2 12 2 21 6 18
27 16 33 -2z m443 2 c0 -8 -4 -15 -10 -15 -5 0 -7 7 -4 15 4 8 8 15 10 15 2 0
4 -7 4 -15z m-2307 -50 c-3 -9 -8 -14 -10 -11 -3 3 -2 9 2 15 9 16 15 13 8 -4z
m-387 -10 c8 -20 -13 -45 -32 -38 -14 5 -19 34 -7 46 11 12 33 7 39 -8z m168
-2 c-5 -23 15 -54 23 -35 9 24 23 12 17 -15 -7 -26 -7 -27 13 -7 11 10 25 28
32 39 10 17 11 15 5 -15 -4 -19 -8 -48 -9 -65 -3 -45 -4 -45 -23 -45 -10 0
-27 -7 -38 -15 -26 -20 -34 -19 -29 5 3 14 -6 30 -25 47 -19 16 -27 30 -21 37
4 6 11 24 15 39 4 15 10 25 15 22 5 -2 11 2 15 10 8 21 15 19 10 -2z m1984 -2
c3 -8 -1 -12 -9 -9 -7 2 -15 10 -17 17 -3 8 1 12 9 9 7 -2 15 -10 17 -17z
m123 4 c-1 -15 -24 -12 -29 3 -3 9 2 13 12 10 10 -1 17 -7 17 -13z m-118 -19
c8 3 18 1 21 -4 3 -6 15 -8 25 -5 10 3 22 0 25 -6 4 -6 12 -11 17 -11 6 0 7 5
4 10 -10 16 17 11 37 -7 17 -15 18 -15 18 0 0 19 25 23 36 6 4 -8 9 -7 15 2
12 19 44 -1 45 -29 2 -34 -12 -49 -34 -35 -14 8 -23 8 -30 1 -13 -13 -32 -2
-33 20 0 12 -3 11 -9 -5 -11 -27 -35 -30 -48 -7 -8 14 -10 14 -15 1 -3 -10 1
-17 14 -20 28 -8 26 -55 -3 -62 -56 -13 -108 9 -108 45 0 20 15 28 48 25 21
-2 28 6 16 17 -3 3 -21 2 -42 -3 -44 -10 -62 2 -62 41 0 34 8 42 31 30 9 -6
24 -7 32 -4z m-1786 -18 c-3 -8 -6 -5 -6 6 -1 11 2 17 5 13 3 -3 4 -12 1 -19z
m43 8 c0 -2 -7 -7 -16 -10 -8 -3 -12 -2 -9 4 6 10 25 14 25 6z m2044 -15 c20
-22 15 -56 -9 -65 -20 -7 -38 30 -31 60 8 29 17 30 40 5z m61 9 c4 -6 3 -17
-2 -23 -4 -7 0 -4 10 6 15 17 22 18 42 9 17 -8 25 -8 27 0 3 7 12 9 22 5 23
-9 18 -60 -6 -65 -12 -2 -18 3 -18 15 -1 17 -1 17 -15 0 -9 -13 -20 -17 -33
-13 -11 4 -23 2 -27 -4 -11 -18 -35 9 -35 40 0 37 20 54 35 30z m174 -17 c11
-21 -3 -53 -24 -53 -16 0 -31 43 -20 59 10 17 33 13 44 -6z m-2564 -106 c-2
-28 -13 -49 -24 -43 -15 10 0 66 17 66 4 0 7 -10 7 -23z m2079 -43 c7 -19 -1
-34 -19 -34 -18 0 -28 17 -21 35 7 20 32 19 40 -1z m-3446 -16 c7 -7 12 -20
12 -31 0 -32 -44 -18 -48 16 -4 29 14 37 36 15z m3709 -4 c8 -22 -15 -44 -26
-25 -10 16 -4 41 10 41 5 0 12 -7 16 -16z m-317 -60 c0 -2 -14 -4 -31 -4 -16
0 -28 4 -25 9 5 8 56 3 56 -5z m483 -13 c17 -29 9 -50 -13 -36 -5 3 -10 -1
-10 -9 0 -19 -9 -20 -32 -2 -33 24 -14 74 27 76 6 0 18 -13 28 -29z m-415 2
c-10 -2 -28 -2 -40 0 -13 2 -5 4 17 4 22 1 32 -1 23 -4z m622 -40 c13 -14 13
-14 -7 -4 -12 6 -41 11 -65 11 -31 0 -39 3 -28 10 19 13 81 2 100 -17z m-3580
2 c7 -9 10 -18 7 -21 -10 -11 -37 5 -37 21 0 19 14 19 30 0z m130 -10 c7 -9
10 -18 7 -21 -10 -11 -67 -15 -67 -5 0 5 -3 16 -6 25 -8 22 48 22 66 1z m3519
-10 c2 -13 -1 -16 -12 -12 -12 4 -14 1 -10 -11 4 -12 3 -14 -5 -7 -14 13 -4
57 12 52 6 -2 13 -12 15 -22z m75 19 c9 -3 16 -13 16 -21 0 -20 -34 -12 -38
10 -4 19 -1 20 22 11z m-304 -19 c-7 -8 -17 -15 -22 -15 -6 0 -5 7 2 15 7 8
17 15 22 15 6 0 5 -7 -2 -15z m380 -26 c0 -12 -27 -11 -35 1 -11 17 5 32 21
19 8 -6 14 -15 14 -20z m-207 6 c4 -8 2 -17 -4 -21 -12 -7 -41 15 -33 27 8 14
31 11 37 -6z m-3418 -26 c8 -11 -42 -42 -55 -34 -14 9 -13 42 3 48 15 5 46 -3
52 -14z m3665 -4 c14 -16 6 -35 -16 -35 -8 0 -14 10 -14 25 0 28 12 32 30 10z
m-875 -6 c12 -19 -5 -23 -22 -6 -16 16 -16 17 -1 17 9 0 20 -5 23 -11z m583
-12 c2 -10 -3 -17 -12 -17 -10 0 -16 9 -16 21 0 24 23 21 28 -4z m102 13 c0
-5 -2 -10 -4 -10 -3 0 -8 5 -11 10 -3 6 -1 10 4 10 6 0 11 -4 11 -10z m-780
-9 c0 -5 -8 -11 -18 -13 -11 -3 -19 0 -19 8 0 8 9 14 19 14 10 0 18 -4 18 -9z
m145 -1 c3 -5 -1 -10 -10 -10 -9 0 -13 5 -10 10 3 6 8 10 10 10 2 0 7 -4 10
-10z m75 -6 c0 -9 -5 -14 -12 -12 -18 6 -21 28 -4 28 9 0 16 -7 16 -16z m284
-8 c-3 -9 -10 -16 -15 -16 -6 0 -5 9 1 21 13 24 24 20 14 -5z m-4276 -8 c20
-20 14 -40 -10 -36 -15 2 -24 11 -26 26 -4 24 16 30 36 10z m4559 -45 c-3 -10
-5 -2 -5 17 0 19 2 27 5 18 2 -10 2 -26 0 -35z m-4864 15 c8 -31 -10 -50 -34
-37 -19 9 -19 11 -2 34 22 30 29 31 36 3z m4941 8 c-21 -15 -30 -14 -19 3 3 6
14 11 23 11 13 0 13 -2 -4 -14z m72 -12 c4 -15 2 -30 -6 -37 -10 -9 -11 -7 -5
11 4 13 2 29 -5 37 -9 10 -9 15 -1 15 6 0 14 -12 17 -26z m-4546 -3 c0 -5 -9
-7 -20 -4 -11 3 -20 7 -20 9 0 2 9 4 20 4 11 0 20 -4 20 -9z m4524 1 c2 -4 1
-14 -3 -21 -6 -9 -11 -10 -15 -2 -4 6 -1 11 6 11 9 0 9 3 -2 10 -9 6 -10 10
-3 10 6 0 14 -4 17 -8z m-4804 -12 c0 -5 -2 -10 -4 -10 -3 0 -8 5 -11 10 -3 6
-1 10 4 10 6 0 11 -4 11 -10z m4377 -12 c-3 -8 -6 -5 -6 6 -1 11 2 17 5 13 3
-3 4 -12 1 -19z m168 2 c0 -8 -8 -16 -17 -18 -13 -2 -18 3 -18 18 0 15 5 20
18 18 9 -2 17 -10 17 -18z m-3855 -20 c0 -5 -5 -10 -11 -10 -5 0 -7 5 -4 10 3
6 8 10 11 10 2 0 4 -4 4 -10z m3895 -8 c-3 -3 -11 0 -18 7 -9 10 -8 11 6 5 10
-3 15 -9 12 -12z m70 -2 c0 -8 -8 -16 -17 -18 -13 -2 -18 3 -18 18 0 15 5 20
18 18 9 -2 17 -10 17 -18z m-315 -10 c11 -18 -6 -40 -32 -40 -23 0 -34 25 -19
44 14 17 39 15 51 -4z m58 -32 c8 -10 12 -18 7 -18 -14 0 -34 34 -34 55 l1 20
5 -20 c3 -11 12 -28 21 -37z m-5060 35 c-10 -2 -26 -2 -35 0 -10 3 -2 5 17 5
19 0 27 -2 18 -5z m5122 -3 c0 -5 -4 -10 -10 -10 -5 0 -10 5 -10 10 0 6 5 10
10 10 6 0 10 -4 10 -10z m80 -36 c0 -16 -26 -19 -35 -4 -4 6 -4 18 -1 27 5 12
9 13 21 3 8 -7 15 -19 15 -26z m146 -10 c-10 -14 -20 -23 -23 -21 -6 6 30 57
36 51 2 -2 -4 -15 -13 -30z m-674 -24 c5 0 8 -7 5 -14 -4 -11 -1 -13 11 -9 14
5 13 3 -2 -9 -13 -10 -16 -20 -11 -29 7 -11 5 -11 -11 1 -10 8 -22 20 -26 25
-5 6 -8 5 -8 -2 0 -7 -7 -13 -15 -13 -8 0 -15 9 -15 21 0 12 4 17 11 13 8 -4
9 0 4 15 -4 12 -2 21 4 21 6 0 11 -6 11 -14 0 -17 18 -31 27 -22 3 3 0 12 -6
20 -8 9 -9 20 -4 28 6 9 9 7 11 -9 2 -13 8 -23 14 -23z m778 10 c0 -5 -2 -10
-4 -10 -3 0 -8 5 -11 10 -3 6 -1 10 4 10 6 0 11 -4 11 -10z m-300 -38 c-12 -4
-50 17 -50 28 0 5 13 1 30 -8 16 -9 25 -18 20 -20z m-802 3 c-3 -3 -9 2 -12
12 -6 14 -5 15 5 6 7 -7 10 -15 7 -18z m869 -8 c-7 -21 -32 -13 -35 11 -3 21
-1 22 18 12 12 -6 19 -17 17 -23z m-4939 -18 c-3 -8 -7 -3 -11 10 -4 17 -3 21
5 13 5 -5 8 -16 6 -23z m4172 21 c8 5 23 2 37 -7 14 -10 23 -11 23 -4 0 6 5
11 10 11 6 0 10 -7 10 -15 0 -18 17 -20 22 -4 3 9 10 8 25 -2 17 -10 20 -17
12 -32 -10 -17 -12 -17 -28 -3 -19 17 -51 12 -51 -8 0 -8 -3 -8 -8 1 -4 7 -23
15 -42 18 -54 9 -71 16 -65 26 11 16 -7 9 -21 -8 -12 -17 -13 -17 -14 -1 0 23
29 38 55 28 12 -5 28 -5 35 0z m810 0 c-8 -5 -19 -10 -25 -10 -5 0 -3 5 5 10
8 5 20 10 25 10 6 0 3 -5 -5 -10z m258 -14 c3 -12 -1 -17 -10 -14 -7 3 -15 13
-16 22 -3 12 1 17 10 14 7 -3 15 -13 16 -22z m-5165 7 c-7 -2 -19 -2 -25 0 -7
3 -2 5 12 5 14 0 19 -2 13 -5z m4477 -14 c0 -6 -4 -7 -10 -4 -5 3 -10 11 -10
16 0 6 5 7 10 4 6 -3 10 -11 10 -16z m-4433 -15 c-3 -3 -12 -4 -19 -1 -8 3 -5
6 6 6 11 1 17 -2 13 -5z m4883 -14 c0 -23 -10 -26 -28 -8 -18 18 -15 28 8 28
13 0 20 -7 20 -20z m170 -8 c0 -24 -8 -32 -26 -25 -22 8 -17 43 6 43 13 0 20
-7 20 -18z m-775 -2 c3 -5 2 -10 -4 -10 -5 0 -13 5 -16 10 -3 6 -2 10 4 10 5
0 13 -4 16 -10z m76 -3 c-1 -12 -15 -9 -19 4 -3 6 1 10 8 8 6 -3 11 -8 11 -12z
m609 -8 c0 -15 -4 -19 -16 -15 -9 3 -18 6 -20 6 -2 0 -4 7 -4 15 0 8 9 15 20
15 14 0 20 -7 20 -21z m-5435 -9 c3 -5 2 -10 -4 -10 -5 0 -13 5 -16 10 -3 6
-2 10 4 10 5 0 13 -4 16 -10z m4422 -6 c-3 -3 -12 -4 -19 -1 -8 3 -5 6 6 6 11
1 17 -2 13 -5z m48 -3 c3 -6 -4 -9 -15 -8 -11 1 -20 5 -20 9 0 11 28 10 35 -1z
m-230 -21 c-10 -11 -23 -20 -29 -20 -6 1 0 10 13 20 30 26 39 26 16 0z m-45 0
c0 -5 -2 -10 -4 -10 -3 0 -8 5 -11 10 -3 6 -1 10 4 10 6 0 11 -4 11 -10z m90
-22 c0 -7 -5 -6 -13 1 -8 6 -18 7 -22 3 -5 -4 -5 -2 -1 5 8 14 36 6 36 -9z
m30 2 c0 -5 -4 -10 -10 -10 -5 0 -10 5 -10 10 0 6 5 10 10 10 6 0 10 -4 10
-10z m-974 -20 c8 0 14 -10 14 -24 0 -27 -18 -45 -24 -24 -7 23 -15 73 -10 61
3 -7 12 -13 20 -13z m788 14 c9 -3 16 -14 17 -23 0 -11 3 -9 9 7 5 12 14 22
19 22 13 0 25 -45 17 -65 -6 -17 -26 -20 -26 -5 0 7 -7 7 -20 0 -28 -15 -40
-5 -40 36 0 37 0 37 24 28z m-744 -14 c0 -5 -2 -10 -4 -10 -3 0 -8 5 -11 10
-3 6 -1 10 4 10 6 0 11 -4 11 -10z m845 0 c5 -8 11 -8 20 0 10 8 17 5 29 -12
14 -19 14 -24 2 -36 -9 -9 -19 -11 -28 -6 -7 5 -21 7 -30 6 -14 -3 -18 4 -18
27 0 31 13 41 25 21z m105 -17 c0 -15 -2 -15 -24 -7 -22 9 -20 20 4 20 11 0
20 -6 20 -13z m26 -10 c-10 -10 -19 5 -10 18 6 11 8 11 12 0 2 -7 1 -15 -2
-18z m-1086 -13 c-6 -11 -13 -20 -15 -20 -3 0 -5 9 -5 20 0 11 7 20 15 20 13
0 14 -4 5 -20z m160 5 c0 -8 -4 -15 -9 -15 -5 0 -11 7 -15 15 -3 9 0 15 9 15
8 0 15 -7 15 -15z m1758 -29 c3 -12 -1 -17 -10 -14 -7 3 -15 13 -16 22 -3 12
1 17 10 14 7 -3 15 -13 16 -22z m-883 -15 c-8 -13 -42 -14 -50 -2 -3 5 7 11
22 13 33 4 37 3 28 -11z m-115 -1 c0 -5 -4 -10 -10 -10 -5 0 -10 5 -10 10 0 6
5 10 10 10 6 0 10 -4 10 -10z m-780 -27 c0 -20 -24 -11 -28 10 -2 12 1 15 12
11 9 -3 16 -13 16 -21z m-55 -3 c0 -7 -6 -15 -12 -17 -8 -3 -13 4 -13 17 0 13
5 20 13 18 6 -3 12 -11 12 -18z m105 6 c0 -8 -4 -18 -10 -21 -5 -3 -10 -4 -10
-1 0 2 -3 11 -6 20 -4 11 -1 16 10 16 9 0 16 -6 16 -14z m790 -17 c0 -11 -4
-17 -10 -14 -5 3 -10 13 -10 21 0 8 5 14 10 14 6 0 10 -9 10 -21z m205 -28
c-3 -11 -10 -21 -15 -21 -13 0 -21 31 -14 53 5 17 8 18 21 4 9 -9 13 -23 8
-36z m-145 8 c0 -27 -2 -30 -15 -19 -10 9 -15 9 -15 1 0 -6 -4 -11 -10 -11
-16 0 -11 32 8 46 26 20 32 17 32 -17z m40 -5 c0 -13 -4 -24 -10 -24 -5 0 -10
14 -10 31 0 17 4 28 10 24 6 -3 10 -17 10 -31z m47 20 c3 -8 -2 -23 -11 -32
-15 -15 -16 -14 -16 16 0 33 16 43 27 16z m117 -1 c9 -22 -12 -43 -23 -24 -10
15 -4 41 9 41 4 0 11 -8 14 -17z m56 2 c9 -11 10 -19 2 -27 -14 -14 -32 -1
-32 23 0 23 13 25 30 4z m-5119 -18 c-10 -9 -11 -8 -5 6 3 10 9 15 12 12 3 -3
0 -11 -7 -18z m5174 5 c0 -18 -20 -15 -23 4 -3 10 1 15 10 12 7 -3 13 -10 13
-16z m-4871 -7 c4 -13 10 -14 26 -5 13 7 20 7 20 0 0 -5 -6 -10 -14 -10 -8 0
-21 -8 -28 -19 -14 -20 -79 -35 -72 -16 5 12 -144 13 -164 1 -8 -5 -12 2 -12
21 0 24 4 29 28 30 15 0 19 -1 10 -4 -10 -2 -18 -9 -18 -15 0 -6 25 -8 68 -4
37 3 75 5 85 6 12 0 16 5 11 13 -6 10 -4 10 7 0 18 -18 42 -16 35 2 -3 8 -1
15 3 15 5 0 12 -7 15 -15z m4936 -1 c0 -8 -4 -12 -10 -9 -5 3 -10 10 -10 16 0
5 5 9 10 9 6 0 10 -7 10 -16z m-5315 -4 c-3 -5 -14 -10 -23 -10 -15 0 -15 2
-2 10 20 13 33 13 25 0z m125 -31 c0 -6 -7 -9 -15 -5 -8 3 -15 0 -16 -7 0 -8
-2 -8 -5 -1 -3 6 -17 9 -32 7 -21 -4 -24 -2 -12 6 20 14 80 14 80 0z m4087 5
c-3 -3 -12 -4 -19 -1 -8 3 -5 6 6 6 11 1 17 -2 13 -5z m526 -1 c-7 -2 -21 -2
-30 0 -10 3 -4 5 12 5 17 0 24 -2 18 -5z m-4720 -10 c-7 -2 -21 -2 -30 0 -10
3 -4 5 12 5 17 0 24 -2 18 -5z m467 -33 c0 -5 -11 -10 -25 -10 -26 0 -34 -15
-12 -23 6 -3 -5 -4 -25 -3 -20 1 -41 6 -45 10 -4 5 -3 6 4 2 6 -3 27 3 45 14
36 22 58 26 58 10z m-304 -15 c-3 -8 0 -15 7 -16 9 0 9 -2 -1 -6 -6 -2 -10 -9
-6 -14 3 -5 1 -9 -5 -9 -5 0 -13 5 -16 10 -3 6 -1 10 5 10 6 0 8 5 5 10 -3 6
-3 15 0 20 10 15 18 12 11 -5z m149 5 c-3 -5 -12 -10 -18 -10 -7 0 -6 4 3 10
19 12 23 12 15 0z m-67 -20 c-7 -10 -14 -17 -17 -15 -4 4 18 35 25 35 2 0 -1
-9 -8 -20z m237 0 c8 -13 -5 -13 -25 0 -13 8 -13 10 2 10 9 0 20 -4 23 -10z
m-195 -10 c0 -5 -4 -10 -9 -10 -6 0 -13 5 -16 10 -3 6 1 10 9 10 9 0 16 -4 16
-10z m65 0 c3 -4 -8 -10 -23 -12 -18 -2 -29 0 -29 8 0 13 44 16 52 4z m-380
-9 c-6 -5 -23 -12 -40 -15 -28 -6 -28 -5 5 8 43 18 46 18 35 7z m61 -3 c5 -8
2 -9 -9 -5 -10 3 -17 2 -17 -2 0 -5 -7 -11 -15 -15 -19 -7 -19 -1 1 18 18 19
30 20 40 4z m54 -3 c-7 -8 -16 -15 -20 -15 -4 0 -10 7 -14 15 -4 11 2 15 21
15 21 0 24 -2 13 -15z m450 5 c0 -5 -15 -9 -32 -9 l-33 1 30 8 c17 4 31 8 33
9 1 0 2 -3 2 -9z m-655 -19 c-8 -13 -45 -15 -45 -2 0 5 10 11 23 13 27 5 31 3
22 -11z m-165 -1 c0 -5 -7 -10 -15 -10 -8 0 -15 5 -15 10 0 6 7 10 15 10 8 0
15 -4 15 -10z m50 0 c0 -5 -4 -10 -10 -10 -5 0 -10 5 -10 10 0 6 5 10 10 10 6
0 10 -4 10 -10z m30 0 c0 -5 -4 -10 -10 -10 -5 0 -10 5 -10 10 0 6 5 10 10 10
6 0 10 -4 10 -10z m25 0 c3 -5 1 -10 -4 -10 -6 0 -11 5 -11 10 0 6 2 10 4 10
3 0 8 -4 11 -10z m3405 0 c0 -5 -4 -10 -10 -10 -5 0 -10 5 -10 10 0 6 5 10 10
10 6 0 10 -4 10 -10z m-2737 -21 c-6 -6 -17 -8 -24 -3 -9 5 -8 9 7 14 23 9 31
3 17 -11z m105 -23 c5 -3 7 7 5 22 -3 26 -3 26 14 -5 17 -34 27 -40 38 -23 3
6 1 10 -4 10 -6 0 -11 5 -11 11 0 8 4 8 15 -1 8 -6 18 -9 24 -6 5 3 4 -8 -2
-24 -7 -17 -13 -26 -15 -20 -8 22 -24 9 -18 -15 8 -30 -10 -34 -19 -5 -5 16
-10 18 -26 10 -10 -6 -19 -9 -19 -6 0 2 -3 13 -7 23 -6 16 -5 16 11 4 12 -10
20 -11 28 -3 8 8 0 13 -28 18 -22 5 -42 7 -47 6 -4 -1 -2 7 5 18 12 18 13 19
20 2 5 -13 7 -12 8 8 1 24 2 24 10 4 5 -12 13 -25 18 -28z m2109 37 c-7 -7
-139 -4 -146 3 -2 2 31 4 74 4 43 0 75 -3 72 -7z m73 -3 c0 -5 -13 -10 -30
-10 -16 0 -30 5 -30 10 0 6 14 10 30 10 17 0 30 -4 30 -10z m65 0 c3 -5 -1
-10 -9 -10 -9 0 -16 5 -16 10 0 6 4 10 9 10 6 0 13 -4 16 -10z m58 3 c-7 -2
-19 -2 -25 0 -7 3 -2 5 12 5 14 0 19 -2 13 -5z m112 -3 c-25 -11 -62 -12 -68
-2 -3 4 16 8 42 9 33 1 41 0 26 -7z m-2612 -24 c4 -10 0 -12 -15 -8 -15 4 -17
7 -6 13 17 11 15 11 21 -5z m51 -2 c9 -24 7 -31 -4 -14 -9 13 -11 13 -20 0 -8
-13 -10 -13 -10 1 0 30 24 39 34 13z m1096 6 c-8 -5 -19 -10 -25 -10 -5 0 -3
5 5 10 8 5 20 10 25 10 6 0 3 -5 -5 -10z m70 6 c0 -3 -4 -8 -10 -11 -5 -3 -10
-1 -10 4 0 6 5 11 10 11 6 0 10 -2 10 -4z m117 -10 c-3 -8 -1 -17 6 -19 7 -2
9 -8 4 -12 -11 -13 -28 10 -21 28 3 9 8 17 11 17 3 0 3 -6 0 -14z m-1547 -12
c0 -2 -12 -4 -27 -4 -21 0 -24 3 -14 9 13 8 41 5 41 -5z m1853 9 c-7 -2 -21
-2 -30 0 -10 3 -4 5 12 5 17 0 24 -2 18 -5z m-1553 -13 c0 -5 -4 -10 -10 -10
-5 0 -10 5 -10 10 0 6 5 10 10 10 6 0 10 -4 10 -10z m30 6 c0 -3 -4 -8 -10
-11 -5 -3 -10 -1 -10 4 0 6 5 11 10 11 6 0 10 -2 10 -4z m1290 -17 c0 -5 -12
-8 -27 -8 -24 2 -25 2 -5 6 13 3 19 9 16 15 -4 7 -2 8 4 4 7 -4 12 -11 12 -17z
m650 11 c0 -5 -4 -10 -10 -10 -5 0 -10 5 -10 10 0 6 5 10 10 10 6 0 10 -4 10
-10z m-2463 -6 c-11 -11 -68 -14 -62 -4 3 6 20 10 37 10 17 0 29 -3 25 -6z
m1860 0 c-3 -3 -12 -4 -19 -1 -8 3 -5 6 6 6 11 1 17 -2 13 -5z m-1467 -14 c0
-5 -5 -10 -11 -10 -5 0 -7 5 -4 10 3 6 8 10 11 10 2 0 4 -4 4 -10z m170 -4 c0
-8 -7 -17 -16 -20 -13 -5 -14 -4 -6 7 7 8 9 17 5 20 -3 4 -1 7 5 7 7 0 12 -6
12 -14z m160 -17 c0 -10 -4 -19 -10 -19 -5 0 -10 7 -10 15 0 8 -5 15 -11 15
-5 0 -8 4 -4 10 9 15 35 0 35 -21z m1365 21 c3 -5 -3 -10 -15 -10 -12 0 -18 5
-15 10 3 6 10 10 15 10 5 0 12 -4 15 -10z m-1755 -12 c0 -4 -12 -8 -26 -8 -14
0 -23 4 -20 8 2 4 14 8 25 8 12 0 21 -4 21 -8z m5597 6 c-3 -3 -12 -4 -19 -1
-8 3 -5 6 6 6 11 1 17 -2 13 -5z m-5457 -14 c0 -5 -9 -10 -20 -10 -11 0 -20 5
-20 10 0 6 9 10 20 10 11 0 20 -4 20 -10z m150 -20 c0 -5 -2 -10 -4 -10 -3 0
-8 5 -11 10 -3 6 -1 10 4 10 6 0 11 -4 11 -10z m-51 -13 c-2 -1 -13 -9 -24
-17 -19 -14 -19 -14 -6 3 7 9 18 17 24 17 6 0 8 -1 6 -3z m1119 -15 c6 -18
-15 -14 -22 4 -4 10 -1 14 6 12 6 -2 14 -10 16 -16z m-1101 -8 c-3 -3 -12 -4
-19 -1 -8 3 -5 6 6 6 11 1 17 -2 13 -5z m1140 0 c-3 -3 -12 -4 -19 -1 -8 3 -5
6 6 6 11 1 17 -2 13 -5z m-117 -71 c0 -12 -2 -12 -15 1 -8 8 -15 17 -15 20 0
3 7 3 15 0 8 -4 15 -13 15 -21z m75 17 c3 -5 1 -10 -4 -10 -6 0 -11 5 -11 10
0 6 2 10 4 10 3 0 8 -4 11 -10z m207 -10 c-10 -12 -18 -16 -21 -9 -2 6 3 15
10 20 24 15 29 10 11 -11z m-758 -1 c-4 -8 1 -9 17 -4 13 3 19 3 13 -2 -6 -4
-14 -18 -18 -30 -7 -21 -36 -22 -36 -1 0 5 5 6 10 3 6 -3 10 -1 10 5 0 7 -12
9 -32 6 -37 -6 -78 2 -78 14 0 5 19 7 42 5 23 -2 49 0 58 5 20 12 22 12 14 -1z
m100 -4 c2 -7 -7 -10 -25 -7 -16 2 -27 7 -25 11 7 11 45 8 50 -4z m144 -7 c-2
-14 -11 -24 -23 -26 -18 -2 -18 -2 -3 8 9 6 15 17 12 25 -4 8 -1 15 6 15 6 0
10 -10 8 -22z m72 12 c0 -5 -5 -10 -11 -10 -5 0 -7 5 -4 10 3 6 8 10 11 10 2
0 4 -4 4 -10z m197 4 c-3 -3 -12 -4 -19 -1 -8 3 -5 6 6 6 11 1 17 -2 13 -5z
m-682 -14 c3 -5 1 -10 -4 -10 -6 0 -11 5 -11 10 0 6 2 10 4 10 3 0 8 -4 11
-10z m329 -2 c5 -10 7 -10 12 0 7 14 34 16 34 2 0 -5 -7 -10 -16 -10 -9 0 -12
-5 -8 -12 5 -8 2 -9 -10 -5 -10 4 -24 7 -32 7 -8 0 -11 6 -8 15 7 18 20 19 28
3z m-409 -7 c-9 -8 -36 -10 -30 -2 2 4 11 8 20 8 8 0 13 -3 10 -6z m100 -29
c-15 -16 -16 -15 -4 12 7 15 15 23 17 16 3 -7 -3 -19 -13 -28z m675 28 c0 -5
-5 -10 -11 -10 -5 0 -7 5 -4 10 3 6 8 10 11 10 2 0 4 -4 4 -10z m-470 -10 c0
-5 -4 -10 -10 -10 -5 0 -10 5 -10 10 0 6 5 10 10 10 6 0 10 -4 10 -10z m-220
-4 c0 -2 -9 -6 -20 -9 -11 -3 -20 -1 -20 4 0 5 9 9 20 9 11 0 20 -2 20 -4z
m80 -11 c0 -7 -7 -12 -15 -12 -8 0 -16 5 -18 12 -3 6 4 11 14 11 11 0 19 -5
19 -11z m205 5 c3 -5 1 -10 -4 -10 -6 0 -11 5 -11 10 0 6 2 10 4 10 3 0 8 -4
11 -10z m598 -17 c-9 -25 -24 -43 -35 -43 -6 0 -5 7 2 15 7 8 9 15 4 15 -4 0
1 7 12 15 24 18 25 18 17 -2z m2634 11 c-3 -3 -12 -4 -19 -1 -8 3 -5 6 6 6 11
1 17 -2 13 -5z m-3302 -14 c-3 -5 -12 -10 -18 -10 -7 0 -6 4 3 10 19 12 23 12
15 0z m85 -45 c0 -7 -11 -12 -25 -12 -14 0 -25 3 -25 8 0 5 5 9 10 9 6 0 10 7
10 16 0 14 3 14 15 4 8 -7 15 -18 15 -25z m200 31 c0 -3 -4 -8 -10 -11 -5 -3
-10 -1 -10 4 0 6 5 11 10 11 6 0 10 -2 10 -4z m115 -19 c15 -4 14 -5 -7 -6
-21 -1 -28 4 -28 17 0 11 3 13 8 6 4 -7 16 -14 27 -17z m395 13 c0 -5 -8 -10
-17 -10 -15 0 -16 2 -3 10 19 12 20 12 20 0z m-773 -36 c-9 -9 -27 6 -27 22 0
13 2 13 16 -1 9 -9 14 -18 11 -21z m663 26 c0 -5 -4 -10 -10 -10 -5 0 -10 5
-10 10 0 6 5 10 10 10 6 0 10 -4 10 -10z m50 6 c0 -3 -4 -8 -10 -11 -5 -3 -10
-1 -10 4 0 6 5 11 10 11 6 0 10 -2 10 -4z m-798 -28 c-7 -7 -12 -8 -12 -2 0
14 12 26 19 19 2 -3 -1 -11 -7 -17z m29 -1 c-10 -9 -11 -8 -5 6 3 10 9 15 12
12 3 -3 0 -11 -7 -18z m289 13 c0 -5 -5 -10 -11 -10 -5 0 -7 5 -4 10 3 6 8 10
11 10 2 0 4 -4 4 -10z m-470 -10 c0 -5 -7 -7 -15 -4 -8 4 -15 8 -15 10 0 2 7
4 15 4 8 0 15 -4 15 -10z m300 -50 c0 -16 -4 -30 -8 -30 -5 0 -8 10 -6 23 1
12 3 25 3 30 3 21 11 3 11 -23z m4277 24 c-3 -3 -12 -4 -19 -1 -8 3 -5 6 6 6
11 1 17 -2 13 -5z m-770 -10 c-3 -3 -12 -4 -19 -1 -8 3 -5 6 6 6 11 1 17 -2
13 -5z m84 -27 c-10 -9 -11 -8 -5 6 3 10 9 15 12 12 3 -3 0 -11 -7 -18z m849
-21 c0 -3 -4 -8 -10 -11 -5 -3 -10 -1 -10 4 0 6 5 11 10 11 6 0 10 -2 10 -4z
m485 -26 c3 -5 2 -10 -4 -10 -5 0 -13 5 -16 10 -3 6 -2 10 4 10 5 0 13 -4 16
-10z m-1530 -18 c-3 -3 -11 0 -18 7 -9 10 -8 11 6 5 10 -3 15 -9 12 -12z
m1534 -18 c2 -2 -12 -4 -32 -4 -20 0 -37 4 -37 10 0 8 58 3 69 -6z m-1452 0
c-3 -3 -12 -4 -19 -1 -8 3 -5 6 6 6 11 1 17 -2 13 -5z"/>
<path d="M5298 9363 l-16 -38 35 -3 c19 -2 37 -2 39 0 4 5 -29 77 -36 78 -3 0
-13 -17 -22 -37z"/>
<path d="M1670 9463 c-45 -19 -80 -105 -61 -151 38 -91 188 -75 207 23 7 38
-15 93 -45 112 -24 15 -81 24 -101 16z"/>
<path d="M6010 9436 c0 -1 -2 -45 -3 -98 l-4 -98 44 0 c60 0 103 41 103 97 -1
57 -27 85 -89 93 -28 3 -51 6 -51 6z"/>
<path d="M4660 8855 c0 -8 5 -15 10 -15 6 0 10 7 10 15 0 8 -4 15 -10 15 -5 0
-10 -7 -10 -15z"/>
<path d="M4810 8897 c0 -29 7 -37 26 -30 19 7 18 39 -2 47 -23 9 -24 8 -24
-17z"/>
<path d="M4970 8874 c0 -41 2 -45 21 -42 33 5 43 44 19 68 -30 30 -40 24 -40
-26z"/>
<path d="M1975 8871 c-13 -43 30 -74 60 -41 13 15 14 23 5 39 -14 27 -56 28
-65 2z"/>
<path d="M1850 8871 c0 -11 4 -22 9 -25 12 -8 34 21 26 34 -11 17 -35 11 -35
-9z"/>
<path d="M2140 8872 c0 -11 -3 -28 -6 -37 -5 -13 -2 -16 17 -13 19 2 24 9 24
33 0 20 -5 31 -17 33 -12 2 -18 -3 -18 -16z"/>
<path d="M2741 8876 c-9 -11 -10 -20 -1 -35 14 -28 56 -28 65 -1 13 40 -38 68
-64 36z"/>
<path d="M3100 8880 c0 -5 7 -10 15 -10 8 0 15 5 15 10 0 6 -7 10 -15 10 -8 0
-15 -4 -15 -10z"/>
<path d="M3100 8836 c0 -10 9 -16 21 -16 24 0 21 23 -4 28 -10 2 -17 -3 -17
-12z"/>
<path d="M5221 8524 c0 -11 3 -14 6 -6 3 7 2 16 -1 19 -3 4 -6 -2 -5 -13z"/>
<path d="M5238 8483 c7 -3 16 -2 19 1 4 3 -2 6 -13 5 -11 0 -14 -3 -6 -6z"/>
<path d="M5277 8417 c-3 -8 1 -14 8 -14 7 0 11 6 8 14 -3 7 -6 13 -8 13 -2 0
-5 -6 -8 -13z"/>
<path d="M5207 8393 c-8 -16 -25 -47 -37 -70 -13 -24 -21 -45 -18 -49 3 -3 31
-6 62 -7 l56 -3 0 38 c0 20 -4 39 -9 43 -5 3 -12 19 -16 35 -9 41 -21 45 -38
13z"/>
<path d="M2890 8203 c0 -6 8 -17 18 -24 16 -13 16 -13 2 6 -8 11 -16 22 -17
24 -2 2 -3 0 -3 -6z"/>
<path d="M4006 8387 c3 -10 9 -15 12 -12 3 3 0 11 -7 18 -10 9 -11 8 -5 -6z"/>
<path d="M4697 7663 c3 -7 6 -13 8 -13 2 0 5 6 8 13 3 8 -1 14 -8 14 -7 0 -11
-6 -8 -14z"/>
<path d="M5119 7593 c-13 -16 -12 -17 4 -4 9 7 17 15 17 17 0 8 -8 3 -21 -13z"/>
<path d="M4855 7560 c3 -5 8 -10 11 -10 2 0 4 5 4 10 0 6 -5 10 -11 10 -5 0
-7 -4 -4 -10z"/>
<path d="M4230 7430 c0 -123 3 -170 12 -170 39 0 141 25 153 37 39 38 6 109
-56 119 -44 7 -63 24 -27 24 30 0 84 33 98 61 9 17 9 27 -1 45 -14 26 -49 40
-126 48 l-53 5 0 -169z"/>
<path d="M2483 7490 c-3 -11 -9 -20 -14 -20 -5 0 -9 -9 -9 -21 0 -13 -5 -19
-12 -16 -8 3 -13 -4 -14 -17 0 -11 -2 -28 -5 -36 -3 -12 9 -16 64 -18 53 -2
67 0 67 12 0 17 -58 136 -66 136 -3 0 -8 -9 -11 -20z"/>
<path d="M2670 7211 c0 -6 4 -13 10 -16 6 -3 7 1 4 9 -7 18 -14 21 -14 7z"/>
<path d="M1897 6115 c-4 -8 -3 -16 1 -19 9 -5 32 20 25 28 -10 10 -21 7 -26
-9z"/>
<path d="M4310 6140 c0 -5 5 -10 11 -10 5 0 7 5 4 10 -3 6 -8 10 -11 10 -2 0
-4 -4 -4 -10z"/>
<path d="M2521 6177 c2 -1 13 -9 24 -17 19 -14 19 -14 6 3 -7 9 -18 17 -24 17
-6 0 -8 -1 -6 -3z"/>
<path d="M4835 6160 c3 -5 8 -10 11 -10 2 0 4 5 4 10 0 6 -5 10 -11 10 -5 0
-7 -4 -4 -10z"/>
<path d="M3640 3819 c0 -5 5 -7 10 -4 6 3 10 8 10 11 0 2 -4 4 -10 4 -5 0 -10
-5 -10 -11z"/>
<path d="M3308 3813 c7 -3 16 -2 19 1 4 3 -2 6 -13 5 -11 0 -14 -3 -6 -6z"/>
<path d="M3600 3811 c0 -4 -15 -13 -32 -19 -33 -11 -33 -12 -3 -6 31 5 70 34
47 34 -7 0 -12 -4 -12 -9z"/>
<path d="M3170 3782 c0 -10 110 -46 117 -38 3 3 -6 8 -21 12 -14 3 -23 10 -20
15 3 5 -3 9 -13 10 -10 0 -28 2 -40 5 -13 2 -23 0 -23 -4z"/>
<path d="M3323 3783 c9 -2 23 -2 30 0 6 3 -1 5 -18 5 -16 0 -22 -2 -12 -5z"/>
<path d="M4720 3200 c8 -5 20 -10 25 -10 6 0 3 5 -5 10 -8 5 -19 10 -25 10 -5
0 -3 -5 5 -10z"/>
<path d="M4615 2939 c-11 -16 -1 -19 13 -3 7 8 8 14 3 14 -5 0 -13 -5 -16 -11z"/>
<path d="M5120 2870 c0 -5 5 -10 11 -10 6 0 9 -7 5 -15 -4 -11 1 -15 17 -15
18 0 19 2 7 10 -8 5 -11 10 -7 10 9 0 -18 30 -27 30 -3 0 -6 -4 -6 -10z"/>
<path d="M4935 2770 c-3 -5 1 -10 10 -10 9 0 13 5 10 10 -3 6 -8 10 -10 10 -2
0 -7 -4 -10 -10z"/>
<path d="M4600 2712 c0 -5 7 -15 15 -22 8 -7 15 -9 15 -6 0 4 -7 14 -15 22 -8
9 -15 11 -15 6z"/>
<path d="M4520 2632 c0 -5 7 -16 16 -23 14 -12 16 -11 13 5 -4 20 -29 35 -29
18z"/>
<path d="M4501 2594 c0 -11 3 -14 6 -6 3 7 2 16 -1 19 -3 4 -6 -2 -5 -13z"/>
<path d="M4522 2579 c2 -6 8 -10 13 -10 5 0 11 4 13 10 2 6 -4 11 -13 11 -9 0
-15 -5 -13 -11z"/>
<path d="M4335 2243 c3 -97 3 -95 15 -88 6 4 7 11 4 17 -4 5 0 21 7 35 10 19
10 28 1 43 -7 11 -12 31 -12 45 0 14 -4 25 -9 25 -4 0 -7 -35 -6 -77z"/>
<path d="M4418 2292 c-34 -20 -35 -28 -7 -43 16 -8 20 -8 14 1 -4 6 5 22 22
36 32 28 13 31 -29 6z"/>
<path d="M5397 2279 c-10 -36 -8 -69 3 -69 6 0 10 -11 10 -24 0 -14 4 -27 9
-31 17 -10 30 29 21 65 -4 19 -8 29 -9 23 -1 -7 -5 -13 -11 -13 -13 0 -13 27
0 32 7 2 6 10 -3 22 -13 18 -14 18 -20 -5z"/>
<path d="M4910 2230 c0 -5 5 -10 10 -10 6 0 10 -7 10 -15 0 -8 3 -15 8 -16 4
0 17 -2 30 -5 13 -2 30 2 37 10 20 20 5 29 -17 9 -18 -16 -24 -9 -19 20 1 5
-3 6 -8 2 -6 -3 -8 -12 -4 -20 3 -8 2 -15 -1 -15 -4 0 -11 11 -16 25 -9 24
-30 35 -30 15z"/>
<path d="M4395 2210 c3 -5 11 -10 16 -10 6 0 7 5 4 10 -3 6 -11 10 -16 10 -6
0 -7 -4 -4 -10z"/>
<path d="M5036 2185 c4 -8 10 -13 14 -10 5 3 10 -1 13 -7 2 -7 8 -9 13 -5 5 5
1 15 -10 23 -26 18 -37 18 -30 -1z"/>
<path d="M4840 2130 c0 -11 0 -23 1 -27 0 -4 -8 -10 -18 -14 -17 -7 -17 -8 0
-8 10 -1 15 -5 12 -11 -3 -5 1 -10 10 -10 12 0 15 6 10 23 -5 20 -5 20 6 3 9
-14 13 -15 19 -5 7 10 12 10 27 -2 16 -12 17 -12 6 2 -16 19 -5 33 14 18 16
-14 16 -9 3 25 -9 26 -30 36 -30 15 0 -5 6 -7 13 -3 6 4 1 -5 -12 -19 -19 -21
-27 -24 -38 -16 -16 14 -17 36 0 42 7 3 5 6 -5 6 -12 1 -18 -6 -18 -19z"/>
<path d="M5105 2078 c8 -38 25 -61 25 -35 0 9 6 17 13 17 7 1 5 6 -5 14 -10 7
-18 18 -18 25 0 6 -5 11 -11 11 -7 0 -8 -12 -4 -32z"/>
<path d="M4596 2074 c-9 -22 3 -32 14 -14 12 19 12 30 1 30 -5 0 -12 -7 -15
-16z"/>
<path d="M4738 2043 c7 -3 16 -2 19 1 4 3 -2 6 -13 5 -11 0 -14 -3 -6 -6z"/>
<path d="M4630 2030 c0 -5 7 -10 15 -10 8 0 15 5 15 10 0 6 -7 10 -15 10 -8 0
-15 -4 -15 -10z"/>
<path d="M4130 2005 c7 -9 15 -13 17 -11 7 7 -7 26 -19 26 -6 0 -6 -6 2 -15z"/>
<path d="M5050 1970 c-8 -5 -10 -10 -5 -10 6 0 3 -5 -5 -11 -11 -8 -9 -9 10
-3 32 8 36 12 24 24 -6 6 -15 6 -24 0z"/>
<path d="M4650 1901 c0 -5 7 -12 16 -15 14 -5 15 -4 4 9 -14 17 -20 19 -20 6z"/>
<path d="M4715 1890 c3 -5 8 -10 11 -10 2 0 4 5 4 10 0 6 -5 10 -11 10 -5 0
-7 -4 -4 -10z"/>
<path d="M4943 1890 c-24 -10 -30 -25 -13 -35 6 -4 8 -11 5 -16 -3 -5 1 -6 9
-3 8 3 24 1 35 -6 17 -9 21 -8 21 4 0 8 -4 18 -10 21 -5 3 -10 2 -10 -4 0 -7
-8 -7 -25 1 -26 12 -36 34 -11 25 8 -3 17 1 20 9 3 8 4 14 3 13 -1 0 -12 -4
-24 -9z"/>
<path d="M5007 1893 c-15 -15 -5 -29 21 -28 26 0 52 16 52 31 0 5 -5 3 -12 -4
-14 -14 -62 -16 -53 -2 7 11 2 13 -8 3z"/>
<path d="M4570 1876 c0 -9 5 -16 10 -16 6 0 10 4 10 9 0 6 -4 13 -10 16 -5 3
-10 -1 -10 -9z"/>
<path d="M4690 1875 c0 -9 -4 -13 -10 -10 -5 3 -10 2 -10 -3 0 -6 6 -12 14
-15 16 -6 30 30 15 39 -5 3 -9 -2 -9 -11z"/>
<path d="M4872 1883 c11 -3 15 -11 12 -21 -5 -14 -4 -14 4 -2 13 18 6 30 -16
29 -16 -1 -16 -2 0 -6z"/>
<path d="M5341 1864 c0 -11 3 -14 6 -6 3 7 2 16 -1 19 -3 4 -6 -2 -5 -13z"/>
<path d="M4720 1841 c0 -18 -5 -31 -12 -31 -7 0 -14 -11 -14 -25 -2 -33 9 -32
27 3 8 15 18 30 24 34 6 5 5 8 -4 8 -7 0 -11 6 -8 15 4 8 2 17 -3 20 -6 4 -10
-7 -10 -24z"/>
<path d="M4786 1842 c-4 -13 -5 -26 -2 -29 10 -11 18 4 14 29 l-4 23 -8 -23z"/>
<path d="M5365 1817 c-4 -26 -4 -54 -1 -63 3 -9 3 -21 -1 -27 -27 -44 -34
-345 -8 -340 6 1 9 -17 7 -43 -3 -34 0 -45 13 -50 26 -10 41 12 17 27 -18 11
-19 16 -7 67 7 30 12 68 10 84 -2 15 -1 28 4 28 4 0 6 20 6 45 -1 25 1 45 5
45 11 0 8 34 -4 43 -8 5 -6 10 4 17 13 8 13 13 2 31 -8 11 -9 18 -3 14 7 -4
11 10 11 40 0 39 -4 48 -21 52 -15 4 -19 11 -15 27 3 12 1 28 -4 35 -6 10 -10
0 -15 -32z"/>
<path d="M4628 1836 c-20 -15 -23 -26 -8 -26 5 0 14 9 20 20 12 23 11 24 -12
6z"/>
<path d="M5048 1843 c7 -3 16 -2 19 1 4 3 -2 6 -13 5 -11 0 -14 -3 -6 -6z"/>
<path d="M5030 1823 c8 -17 8 -23 -1 -23 -7 0 -9 -3 -6 -6 4 -4 13 -1 22 6 18
15 19 14 33 -25 l10 -30 1 31 c1 34 -22 63 -34 44 -5 -8 -12 -5 -22 7 -13 17
-13 16 -3 -4z"/>
<path d="M4751 1807 c-16 -20 -6 -56 10 -40 6 6 9 21 7 33 -3 21 -4 22 -17 7z"/>
<path d="M4530 1790 c-13 -8 -12 -10 3 -10 9 0 17 5 17 10 0 12 -1 12 -20 0z"/>
<path d="M4955 1790 c4 -6 -2 -10 -13 -10 -16 0 -62 -38 -62 -51 0 -3 9 -5 21
-6 14 -1 19 3 15 12 -6 16 20 29 49 26 28 -4 32 -10 15 -21 -12 -8 -11 -10 5
-10 14 0 20 7 21 24 1 19 -5 27 -27 35 -18 6 -27 6 -24 1z"/>
<path d="M4570 1775 c-13 -16 -7 -45 10 -45 14 0 13 17 -2 23 -7 3 -3 4 10 4
17 -1 22 -6 19 -19 -6 -20 9 -25 16 -5 4 9 8 8 16 -3 5 -8 13 -11 18 -7 8 8
-49 67 -65 67 -5 0 -15 -7 -22 -15z"/>
<path d="M4830 1766 c0 -12 -10 -16 -36 -16 -32 0 -34 -2 -20 -15 8 -8 29 -18
45 -21 29 -6 31 -5 31 24 0 17 -4 34 -10 37 -5 3 -10 -1 -10 -9z"/>
<path d="M4406 1738 c7 -25 25 -51 30 -45 5 5 -26 67 -32 67 -3 0 -2 -10 2
-22z"/>
<path d="M4020 1740 c0 -5 5 -10 10 -10 6 0 10 5 10 10 0 6 -4 10 -10 10 -5 0
-10 -4 -10 -10z"/>
<path d="M3955 1730 c-3 -5 1 -10 10 -10 9 0 13 5 10 10 -3 6 -8 10 -10 10 -2
0 -7 -4 -10 -10z"/>
<path d="M4511 1732 c-19 -6 -60 -54 -61 -69 0 -20 18 -24 35 -7 9 9 14 23 11
30 -8 20 8 17 29 -6 10 -11 23 -20 28 -20 5 0 -2 11 -17 25 -26 24 -37 47 -13
27 8 -7 18 -7 27 -2 24 15 -8 33 -39 22z"/>
<path d="M3930 1695 c-7 -8 -8 -15 -2 -15 5 0 15 7 22 15 7 8 8 15 2 15 -5 0
-15 -7 -22 -15z"/>
<path d="M3988 1688 c5 -5 16 -8 23 -6 8 3 3 7 -10 11 -17 4 -21 3 -13 -5z"/>
<path d="M4945 1689 c-18 -8 -17 -9 5 -5 24 5 25 5 5 -11 -18 -14 -18 -15 -2
-9 10 3 21 6 23 6 2 0 4 7 4 15 0 17 -6 18 -35 4z"/>
<path d="M4573 1668 c-2 -16 1 -18 10 -9 7 7 8 14 1 21 -6 6 -10 2 -11 -12z"/>
<path d="M4835 1680 c3 -5 10 -10 16 -10 5 0 9 5 9 10 0 6 -7 10 -16 10 -8 0
-12 -4 -9 -10z"/>
<path d="M4890 1686 c0 -2 7 -7 16 -10 8 -3 12 -2 9 4 -6 10 -25 14 -25 6z"/>
<path d="M4003 1644 c1 -10 -4 -19 -11 -19 -8 0 -20 -8 -27 -18 -17 -24 -30
-5 -15 23 6 11 8 20 4 20 -11 0 -44 -42 -44 -57 0 -16 -12 -17 -30 0 -12 10
-12 9 -1 -5 7 -10 20 -18 28 -18 12 0 11 -5 -3 -29 -13 -21 -22 -27 -38 -23
-20 5 -20 5 -4 -11 9 -9 29 -17 45 -17 22 0 25 2 13 10 -12 8 -12 10 5 11 11
0 14 3 8 6 -14 5 -18 24 -5 22 20 -3 32 3 32 17 0 8 4 13 9 9 24 -14 64 66 43
87 -7 7 -10 4 -9 -8z m-63 -70 c0 -8 -4 -12 -10 -9 -5 3 -10 10 -10 16 0 5 5
9 10 9 6 0 10 -7 10 -16z"/>
<path d="M4666 1652 c-3 -6 -1 -14 5 -17 14 -9 20 -2 10 14 -6 8 -11 9 -15 3z"/>
<path d="M4050 1629 c0 -10 -4 -19 -10 -19 -5 0 -10 -7 -10 -15 0 -9 6 -12 15
-9 8 4 15 15 15 26 0 10 4 17 9 13 5 -3 12 -1 15 4 3 5 -3 11 -14 14 -15 4
-20 0 -20 -14z"/>
<path d="M4740 1630 c0 -5 5 -10 11 -10 5 0 7 5 4 10 -3 6 -8 10 -11 10 -2 0
-4 -4 -4 -10z"/>
<path d="M4100 1620 c-8 -5 -10 -10 -5 -10 6 0 17 5 25 10 8 5 11 10 5 10 -5
0 -17 -5 -25 -10z"/>
<path d="M4707 1620 c6 -7 9 -19 6 -26 -3 -8 0 -14 7 -14 16 0 8 43 -10 48
-12 3 -12 2 -3 -8z"/>
<path d="M4970 1610 c13 -24 17 -25 17 -5 0 8 -6 16 -14 19 -11 4 -11 1 -3
-14z"/>
<path d="M4160 1603 c8 -3 19 -11 23 -17 6 -7 7 -6 4 4 -2 8 -12 16 -23 17
-13 2 -15 1 -4 -4z"/>
<path d="M5000 1579 c0 -6 -9 -8 -22 -3 -13 3 -20 3 -15 -2 4 -4 23 -9 42 -10
26 -2 33 0 28 11 -6 17 -33 20 -33 4z"/>
<path d="M3835 1560 c-3 -5 -1 -10 4 -10 6 0 11 5 11 10 0 6 -2 10 -4 10 -3 0
-8 -4 -11 -10z"/>
<path d="M5096 1555 c-3 -8 -12 -12 -21 -9 -10 4 -15 0 -15 -10 0 -9 -11 -22
-25 -28 -14 -6 -25 -17 -25 -24 0 -7 -3 -19 -6 -28 -4 -10 -1 -16 9 -16 8 0
17 -7 20 -14 4 -10 1 -13 -9 -9 -7 3 -14 0 -14 -6 0 -6 5 -11 10 -11 6 0 10
-7 10 -15 0 -19 7 -19 33 3 24 19 33 42 16 42 -20 0 -4 45 21 57 14 7 19 13
13 13 -7 0 -13 9 -13 21 0 11 4 18 8 15 4 -2 9 4 9 15 2 22 -12 26 -21 4z"/>
<path d="M4136 1534 c7 -3 10 -15 8 -27 -4 -21 -4 -21 5 -2 10 23 5 35 -12 34
-9 0 -9 -2 -1 -5z"/>
<path d="M4986 1509 c-4 -19 -10 -28 -17 -23 -8 5 -10 0 -6 -18 6 -23 4 -25
-21 -21 -25 3 -26 3 -4 -6 24 -11 31 -37 7 -27 -8 3 -15 1 -15 -4 0 -6 8 -10
18 -10 14 0 15 -2 2 -10 -21 -13 -3 -13 22 1 16 9 19 17 14 41 -3 17 -1 37 5
44 13 15 20 64 9 64 -4 0 -10 -14 -14 -31z"/>
<path d="M4733 1522 c-13 -2 -23 -8 -23 -14 0 -7 -5 -6 -15 2 -8 6 -20 10 -27
7 -9 -4 -8 -6 3 -6 9 -1 19 -11 22 -23 6 -21 7 -21 25 -5 20 18 37 23 28 8 -7
-11 19 -63 27 -54 14 13 7 42 -8 37 -18 -7 -19 0 -5 26 12 22 4 28 -27 22z"/>
<path d="M4003 1502 c-5 -22 -23 -31 -23 -12 0 16 -27 11 -34 -6 -9 -23 -8
-24 19 -24 14 0 25 -4 25 -10 0 -5 4 -10 9 -10 5 0 11 17 13 38 6 42 0 57 -9
24z"/>
<path d="M4475 1509 c-4 -6 -5 -12 -2 -15 2 -3 7 2 10 11 7 17 1 20 -8 4z"/>
<path d="M4081 1498 c-1 -10 -8 -18 -16 -18 -8 0 -15 -4 -15 -10 0 -5 4 -10 9
-10 14 0 33 28 28 42 -4 8 -6 7 -6 -4z"/>
<path d="M4230 1499 c0 -6 -9 -9 -20 -6 -11 3 -18 0 -17 -7 1 -6 -6 -10 -16
-9 -14 1 -17 -4 -14 -17 3 -11 0 -21 -7 -24 -7 -3 -7 -5 2 -5 7 -1 15 6 18 14
4 8 13 15 21 15 8 0 11 5 8 10 -3 6 0 10 8 10 8 0 20 7 27 15 9 10 9 15 1 15
-6 0 -11 -5 -11 -11z"/>
<path d="M3830 1480 c0 -11 2 -20 4 -20 2 0 6 9 9 20 3 11 1 20 -4 20 -5 0 -9
-9 -9 -20z"/>
<path d="M4025 1490 c-3 -5 -2 -10 4 -10 5 0 13 5 16 10 3 6 2 10 -4 10 -5 0
-13 -4 -16 -10z"/>
<path d="M4411 1464 c0 -11 3 -14 6 -6 3 7 2 16 -1 19 -3 4 -6 -2 -5 -13z"/>
<path d="M4890 1476 c0 -2 9 -6 20 -9 11 -3 18 -1 14 4 -5 9 -34 13 -34 5z"/>
<path d="M5109 1478 c-5 -17 -4 -50 3 -60 5 -8 8 1 8 25 0 20 -2 37 -5 37 -3
0 -5 -1 -6 -2z"/>
<path d="M3210 1459 c0 -5 5 -7 10 -4 6 3 10 8 10 11 0 2 -4 4 -10 4 -5 0 -10
-5 -10 -11z"/>
<path d="M4723 1455 c0 -8 4 -15 9 -15 4 0 8 4 8 9 0 6 -4 12 -8 15 -5 3 -9
-1 -9 -9z"/>
<path d="M4851 1446 c-7 -8 -11 -23 -8 -33 3 -13 5 -12 6 6 1 20 3 21 16 11
16 -13 20 -3 6 18 -6 10 -10 10 -20 -2z"/>
<path d="M3770 1446 c0 -2 7 -7 16 -10 8 -3 12 -2 9 4 -6 10 -25 14 -25 6z"/>
<path d="M3858 1443 c7 -3 16 -2 19 1 4 3 -2 6 -13 5 -11 0 -14 -3 -6 -6z"/>
<path d="M3890 1441 c0 -5 9 -11 20 -14 12 -3 20 0 20 7 0 6 -9 12 -20 13 -11
1 -20 -2 -20 -6z"/>
<path d="M3956 1435 c4 -8 8 -15 10 -15 2 0 4 7 4 15 0 8 -4 15 -10 15 -5 0
-7 -7 -4 -15z"/>
<path d="M4075 1439 c-11 -17 1 -21 15 -4 8 9 8 15 2 15 -6 0 -14 -5 -17 -11z"/>
<path d="M4688 1443 c7 -3 16 -2 19 1 4 3 -2 6 -13 5 -11 0 -14 -3 -6 -6z"/>
<path d="M4907 1400 c3 -11 9 -20 13 -20 5 0 6 9 3 20 -3 11 -9 20 -13 20 -5
0 -6 -9 -3 -20z"/>
<path d="M4330 1389 c0 -5 5 -7 10 -4 6 3 10 8 10 11 0 2 -4 4 -10 4 -5 0 -10
-5 -10 -11z"/>
<path d="M4882 1386 c7 -8 15 -12 17 -11 5 6 -10 25 -20 25 -5 0 -4 -6 3 -14z"/>
<path d="M5073 1375 c-9 -10 -8 -14 8 -18 11 -3 19 -14 19 -26 0 -12 5 -21 10
-21 6 0 10 11 10 25 0 15 -6 25 -14 25 -8 0 -16 6 -18 14 -2 11 -5 12 -15 1z"/>
<path d="M4155 1360 c-3 -5 -1 -10 4 -10 6 0 11 5 11 10 0 6 -2 10 -4 10 -3 0
-8 -4 -11 -10z"/>
<path d="M5025 1340 c27 -12 35 -12 35 0 0 6 -12 10 -27 9 -25 0 -26 -1 -8 -9z"/>
<path d="M4353 1325 c-7 -8 -9 -16 -4 -19 5 -3 12 1 15 10 8 22 4 25 -11 9z"/>
<path d="M5036 1304 c-5 -13 -4 -14 7 -6 8 7 17 9 20 5 4 -3 7 -1 7 5 0 18
-27 14 -34 -4z"/>
<path d="M2988 1303 c7 -3 16 -2 19 1 4 3 -2 6 -13 5 -11 0 -14 -3 -6 -6z"/>
<path d="M4961 1282 c-1 -7 4 -22 9 -33 8 -14 17 -18 36 -13 24 6 25 5 13 -14
-10 -16 -16 -18 -26 -10 -8 7 -13 7 -13 0 0 -8 22 -22 35 -22 1 0 6 10 10 23
9 28 16 66 9 50 -3 -7 -12 -13 -20 -13 -9 0 -12 5 -8 12 4 7 3 8 -5 4 -6 -4
-9 -12 -6 -17 4 -5 2 -9 -4 -9 -5 0 -14 12 -19 28 -6 15 -11 21 -11 14z"/>
<path d="M5113 1255 c6 -19 12 -33 15 -31 7 7 -9 66 -18 66 -4 0 -3 -16 3 -35z"/>
<path d="M2950 1241 c0 -5 5 -13 10 -16 6 -3 10 -2 10 4 0 5 -4 13 -10 16 -5
3 -10 2 -10 -4z"/>
<path d="M4890 1222 c0 -6 5 -14 11 -17 6 -4 7 -19 4 -35 -7 -33 7 -47 25 -25
9 10 9 15 1 15 -6 0 -11 7 -11 15 0 12 8 14 31 10 26 -5 28 -3 17 8 -7 8 -19
12 -26 10 -7 -3 -22 3 -32 12 -11 10 -20 13 -20 7z"/>
<path d="M2800 1210 c0 -5 4 -10 9 -10 5 0 18 -3 28 -6 16 -6 16 -5 -2 9 -23
19 -35 21 -35 7z"/>
<path d="M4280 1199 c-37 -20 -60 -24 -60 -10 0 16 -25 18 -50 4 l-25 -15 26
6 c18 4 26 1 26 -9 0 -7 -3 -14 -6 -13 -19 2 -24 -4 -12 -11 15 -10 108 19
120 37 9 12 43 24 36 12 -3 -6 -2 -10 3 -10 6 0 12 7 16 15 8 21 -31 19 -74
-6z"/>
<path d="M5110 1199 c0 -5 5 -7 10 -4 6 3 10 8 10 11 0 2 -4 4 -10 4 -5 0 -10
-5 -10 -11z"/>
<path d="M1541 1191 c-10 -6 -5 -11 18 -16 36 -8 53 1 31 15 -19 12 -31 12
-49 1z"/>
<path d="M4390 1190 c0 -5 5 -10 11 -10 5 0 7 5 4 10 -3 6 -8 10 -11 10 -2 0
-4 -4 -4 -10z"/>
<path d="M5648 1193 c7 -3 16 -2 19 1 4 3 -2 6 -13 5 -11 0 -14 -3 -6 -6z"/>
<path d="M4430 1179 c0 -5 5 -7 10 -4 6 3 10 8 10 11 0 2 -4 4 -10 4 -5 0 -10
-5 -10 -11z"/>
<path d="M5252 1178 c3 -7 12 -13 22 -13 9 0 21 -7 26 -15 5 -8 13 -11 17 -6
10 9 -33 46 -54 46 -8 0 -13 -6 -11 -12z"/>
<path d="M5130 1170 c0 -15 21 -23 32 -12 6 6 2 11 -11 15 -12 3 -21 1 -21 -3z"/>
<path d="M1745 1161 c-3 -5 2 -11 10 -15 8 -3 17 -1 20 3 3 5 -2 11 -10 15 -8
3 -17 1 -20 -3z"/>
<path d="M5195 1156 c-17 -12 -17 -13 8 -18 14 -3 32 -1 39 3 9 6 5 9 -12 10
-23 0 -23 1 -5 9 14 6 16 9 4 9 -8 1 -24 -5 -34 -13z"/>
<path d="M1790 1151 c0 -12 37 -24 50 -16 5 3 10 12 9 18 0 9 -2 9 -6 0 -6
-15 -33 -17 -33 -3 0 6 -4 10 -10 10 -5 0 -10 -4 -10 -9z"/>
<path d="M2558 1148 c6 -6 18 -8 28 -6 14 3 12 5 -9 10 -19 3 -25 2 -19 -4z"/>
<path d="M2418 1143 c7 -3 16 -2 19 1 4 3 -2 6 -13 5 -11 0 -14 -3 -6 -6z"/>
<path d="M5436 1143 c-11 -11 -6 -23 8 -23 8 0 17 4 20 9 7 10 -19 23 -28 14z"/>
<path d="M5590 1135 c-7 -9 -8 -15 -2 -15 5 0 12 7 16 15 3 8 4 15 2 15 -2 0
-9 -7 -16 -15z"/>
<path d="M1485 1120 c-3 -6 1 -7 9 -4 18 7 21 14 7 14 -6 0 -13 -4 -16 -10z"/>
<path d="M4440 1111 c0 -5 5 -13 10 -16 6 -3 10 -2 10 4 0 5 -4 13 -10 16 -5
3 -10 2 -10 -4z"/>
<path d="M4380 1090 c0 -5 7 -10 16 -10 8 0 12 5 9 10 -3 6 -10 10 -16 10 -5
0 -9 -4 -9 -10z"/>
<path d="M5130 1090 c0 -5 5 -10 10 -10 6 0 10 5 10 10 0 6 -4 10 -10 10 -5 0
-10 -4 -10 -10z"/>
<path d="M5200 1086 c0 -9 5 -16 10 -16 6 0 10 4 10 9 0 6 -4 13 -10 16 -5 3
-10 -1 -10 -9z"/>
<path d="M4340 1079 c0 -5 -7 -9 -15 -9 -30 0 -14 -15 18 -16 38 -1 77 -10 86
-20 3 -4 -1 -5 -10 -2 -18 7 -47 -7 -37 -17 9 -9 68 4 68 15 0 13 -39 32 -50
25 -6 -3 -10 -3 -10 2 0 4 -11 13 -25 20 -14 6 -25 7 -25 2z"/>
<path d="M4150 1051 c0 -10 19 -25 25 -20 1 2 -3 10 -11 17 -8 7 -14 8 -14 3z"/>
<path d="M5206 1034 c-8 -20 -8 -24 2 -24 4 0 8 9 9 20 2 24 -3 26 -11 4z"/>
<path d="M1070 1021 c0 -6 5 -13 10 -16 6 -3 10 1 10 9 0 9 -4 16 -10 16 -5 0
-10 -4 -10 -9z"/>
<path d="M4923 1014 c11 -11 36 -16 87 -16 59 0 64 1 58 8 -3 3 -39 8 -79 10
-41 3 -70 2 -66 -2z"/>
<path d="M4168 1003 c7 -3 16 -2 19 1 4 3 -2 6 -13 5 -11 0 -14 -3 -6 -6z"/>
<path d="M4202 988 c8 -22 55 -33 88 -21 17 6 30 7 32 2 2 -5 15 -12 30 -14
l27 -5 -24 24 c-22 22 -27 23 -70 13 -36 -8 -51 -8 -67 2 -16 10 -19 10 -16
-1z"/>
<path d="M4388 993 c7 -3 16 -2 19 1 4 3 -2 6 -13 5 -11 0 -14 -3 -6 -6z"/>
<path d="M1298 953 c7 -3 16 -2 19 1 4 3 -2 6 -13 5 -11 0 -14 -3 -6 -6z"/>
<path d="M1437 923 c-4 -3 -7 -12 -7 -20 0 -15 26 -18 34 -4 7 11 -18 33 -27
24z"/>
<path d="M1108 853 c-16 -2 -28 -9 -28 -14 0 -5 -9 -9 -21 -9 -14 0 -19 -5
-16 -14 3 -8 1 -16 -5 -18 -8 -3 -8 -9 -1 -23 9 -15 8 -22 -3 -30 -12 -8 -12
-13 -2 -27 10 -14 32 -19 92 -22 47 -2 82 -9 86 -16 9 -15 61 -1 68 18 3 9 -3
10 -20 3 -14 -5 -33 -4 -48 2 -14 5 -38 9 -53 8 -30 -3 -56 21 -57 49 0 13 1
13 10 0 7 -11 12 -12 18 -3 8 13 72 15 72 1 0 -4 9 -8 20 -8 11 0 20 -7 20
-15 0 -8 4 -15 8 -15 13 0 42 35 42 50 0 20 -69 83 -85 76 -8 -3 -17 -1 -20 4
-6 10 -26 11 -77 3z"/>
<path d="M1430 840 c0 -5 5 -10 10 -10 6 0 10 5 10 10 0 6 -4 10 -10 10 -5 0
-10 -4 -10 -10z"/>
<path d="M4495 801 c-3 -5 6 -8 20 -7 35 4 44 16 12 16 -14 0 -28 -4 -32 -9z"/>
<path d="M940 774 c0 -8 -4 -13 -9 -9 -20 12 -71 12 -71 0 0 -7 7 -15 15 -19
8 -3 15 -2 15 2 0 5 15 6 34 4 31 -4 34 -2 29 17 -6 25 -13 27 -13 5z"/>
<path d="M1310 780 c0 -5 5 -10 11 -10 5 0 7 5 4 10 -3 6 -8 10 -11 10 -2 0
-4 -4 -4 -10z"/>
<path d="M1352 768 c3 -7 14 -14 26 -16 16 -3 20 1 16 12 -7 19 -48 22 -42 4z"/>
<path d="M1367 649 c7 -7 15 -10 18 -7 3 3 -2 9 -12 12 -14 6 -15 5 -6 -5z"/>
<path d="M1231 642 c-28 -9 -7 -19 25 -12 20 5 42 6 49 4 7 -3 16 -1 19 5 7
10 -65 12 -93 3z"/>
<path d="M1825 610 c-16 -7 -17 -9 -3 -9 9 -1 20 4 23 9 7 11 7 11 -20 0z"/>
<path d="M1748 603 c7 -3 16 -2 19 1 4 3 -2 6 -13 5 -11 0 -14 -3 -6 -6z"/>
<path d="M2528 603 c6 -2 18 -2 25 0 6 3 1 5 -13 5 -14 0 -19 -2 -12 -5z"/>
<path d="M1167 582 c3 -14 11 -18 29 -14 30 6 31 18 2 26 -34 9 -37 8 -31 -12z"/>
<path d="M1131 573 c7 -10 15 -20 16 -22 2 -2 3 5 3 17 0 14 -6 22 -16 22 -14
0 -15 -3 -3 -17z"/>
<path d="M1260 580 c0 -5 5 -10 10 -10 6 0 10 5 10 10 0 6 -4 10 -10 10 -5 0
-10 -4 -10 -10z"/>
<path d="M1612 585 c4 -4 22 -8 40 -9 25 -2 32 -6 30 -19 -2 -9 2 -17 8 -17 5
0 9 3 9 8 -3 19 2 26 11 12 5 -8 12 -11 16 -7 15 14 -16 30 -68 35 -29 2 -50
1 -46 -3z"/>
<path d="M1750 480 c-9 -6 -10 -10 -3 -10 6 0 15 5 18 10 8 12 4 12 -15 0z"/>
<path d="M1170 470 c0 -6 7 -10 15 -10 8 0 15 2 15 4 0 2 -7 6 -15 10 -8 3
-15 1 -15 -4z"/>
<path d="M1465 459 c-16 -6 -14 -8 13 -8 33 -1 41 4 20 12 -7 2 -22 1 -33 -4z"/>
<path d="M1088 2709 c-143 -19 -274 -85 -384 -195 -131 -131 -204 -328 -190
-512 25 -334 290 -596 623 -618 212 -14 429 81 559 244 266 335 159 827 -223
1020 -99 51 -263 77 -385 61z m237 -54 c128 -32 251 -111 336 -212 49 -59 113
-190 128 -261 14 -68 14 -182 0 -258 -14 -76 -74 -204 -128 -272 -92 -115
-254 -203 -412 -223 -253 -31 -514 111 -626 341 -53 110 -68 174 -65 291 5
283 199 528 469 593 78 19 225 19 298 1z"/>
<path d="M1023 2635 c-79 -22 -183 -78 -239 -129 l-49 -45 445 0 445 0 -50 45
c-57 51 -164 108 -245 129 -69 19 -238 18 -307 0z m437 -115 c0 -6 -102 -10
-285 -10 -183 0 -285 4 -285 10 0 6 102 10 285 10 183 0 285 -4 285 -10z"/>
<path d="M676 2386 c-47 -68 -93 -198 -101 -290 -12 -131 32 -292 108 -396
l34 -45 463 0 464 0 28 40 c73 107 108 220 108 355 0 137 -26 224 -104 343
l-31 47 -466 0 -467 0 -36 -54z m444 -26 c0 -5 -4 -10 -10 -10 -5 0 -10 -24
-10 -54 0 -30 -4 -58 -10 -61 -6 -4 -10 17 -10 54 0 34 -4 61 -10 61 -5 0 -10
5 -10 10 0 6 14 10 30 10 17 0 30 -4 30 -10z m43 -19 c-2 -13 3 -21 12 -21 9
0 15 10 15 25 0 14 5 25 10 25 13 0 13 -127 1 -135 -5 -3 -11 9 -13 27 -3 35
-23 37 -23 3 0 -11 -4 -22 -10 -25 -6 -3 -11 22 -13 63 -2 53 0 68 10 64 7 -2
12 -14 11 -26z m127 19 c0 -5 -7 -10 -15 -10 -8 0 -15 -7 -15 -15 0 -9 7 -18
15 -21 19 -8 20 -24 1 -24 -21 0 -13 -32 10 -41 18 -6 18 -7 2 -14 -36 -15
-48 1 -48 63 0 32 3 62 7 65 10 11 43 8 43 -3z m-550 -252 c27 -117 28 -128
14 -128 -8 0 -14 7 -14 15 0 8 -9 15 -20 15 -11 0 -20 -7 -20 -15 0 -8 -7 -15
-15 -15 -12 0 -14 7 -9 28 3 15 10 43 14 62 4 19 11 47 14 63 10 42 23 32 36
-25z m76 -19 c2 -85 2 -89 14 -89 5 0 10 35 12 77 2 50 7 78 16 81 9 3 12 -16
12 -75 0 -91 -7 -106 -46 -101 l-29 3 -3 88 c-2 69 0 88 10 85 9 -3 13 -26 14
-69z m154 54 c0 -7 -7 -13 -15 -13 -12 0 -15 -15 -15 -75 0 -43 -4 -75 -10
-75 -6 0 -10 32 -10 75 0 60 -3 75 -15 75 -8 0 -15 6 -15 13 0 10 13 14 40 14
27 0 40 -4 40 -14z m50 -18 c0 -24 5 -35 15 -35 11 0 15 11 15 36 0 24 4 34
13 32 8 -3 13 -33 15 -91 2 -73 0 -87 -13 -87 -11 0 -15 11 -15 39 0 25 -5 41
-15 45 -12 4 -15 -4 -15 -39 0 -33 -4 -45 -15 -45 -12 0 -15 16 -15 83 0 46 3
87 7 90 15 15 23 5 23 -28z m164 13 c18 -25 21 -94 6 -132 -12 -33 -65 -37
-75 -6 -11 34 -7 130 6 146 17 21 46 17 63 -8z m104 8 c15 -9 16 -58 2 -72 -7
-7 -6 -22 5 -47 19 -45 19 -47 0 -47 -9 0 -18 12 -21 30 -4 17 -10 30 -15 30
-5 0 -6 -13 -2 -30 4 -23 2 -30 -11 -30 -14 0 -16 14 -16 89 0 88 0 89 23 87
13 -2 29 -6 35 -10z m77 -76 c0 -58 -4 -85 -12 -87 -10 -4 -13 18 -13 87 0 68
3 91 12 88 9 -3 13 -31 13 -88z m105 75 c0 -7 -11 -42 -25 -79 l-25 -66 25 0
c14 0 25 -4 25 -10 0 -5 -18 -10 -41 -10 -35 0 -40 2 -34 18 4 9 15 43 25 75
18 55 18 57 0 57 -20 0 -33 13 -24 23 11 11 74 5 74 -8z m90 0 c0 -8 -9 -15
-20 -15 -15 0 -20 -7 -20 -25 0 -18 5 -25 20 -25 11 0 20 -4 20 -10 0 -5 -9
-10 -20 -10 -16 0 -20 -7 -20 -30 0 -23 4 -30 20 -30 11 0 20 -4 20 -10 0 -5
-13 -10 -30 -10 l-30 0 0 90 0 90 30 0 c20 0 30 -5 30 -15z m94 0 c13 -10 20
-31 24 -64 6 -65 -15 -101 -58 -101 l-30 0 0 83 c0 46 3 87 7 90 11 11 37 7
57 -8z m-689 -285 c-4 -6 -10 -8 -15 -5 -4 3 -10 -4 -13 -15 -3 -13 0 -20 9
-20 8 0 14 -4 14 -10 0 -5 -4 -10 -9 -10 -5 0 -11 -9 -14 -20 -3 -13 0 -20 9
-20 8 0 14 -4 14 -10 0 -5 -11 -10 -25 -10 -24 0 -25 2 -25 65 l0 65 31 0 c18
0 28 -4 24 -10z m85 -9 c14 -27 13 -84 -2 -99 -7 -7 -22 -12 -35 -12 -22 0
-23 4 -23 65 0 62 1 65 25 65 14 0 29 -8 35 -19z m60 -46 c0 -37 -4 -65 -10
-65 -6 0 -10 28 -10 65 0 37 4 65 10 65 6 0 10 -28 10 -65z m90 55 c0 -5 -4
-10 -10 -10 -5 0 -10 -25 -10 -55 0 -30 -4 -55 -10 -55 -5 0 -10 25 -10 55 0
30 -4 55 -10 55 -5 0 -10 5 -10 10 0 6 14 10 30 10 17 0 30 -4 30 -10z m42
-55 c-5 -84 -22 -84 -22 0 0 45 4 65 13 65 9 0 11 -18 9 -65z m100 30 c12 -47
-4 -90 -32 -90 -19 0 -26 7 -33 35 -11 50 6 92 35 88 15 -2 24 -13 30 -33z
m66 3 l10 -33 1 33 c2 62 21 32 21 -33 0 -68 -12 -84 -28 -37 l-10 27 -1 -27
c-1 -16 -5 -28 -11 -28 -6 0 -10 28 -10 65 0 71 11 84 28 33z"/>
<path d="M711 2061 c-1 -27 2 -32 11 -23 8 8 8 17 0 34 -10 22 -11 21 -11 -11z"/>
<path d="M1134 2104 c-6 -24 0 -92 10 -101 14 -15 26 15 26 68 0 45 -3 59 -15
59 -8 0 -18 -11 -21 -26z"/>
<path d="M1260 2104 c0 -14 4 -23 10 -19 6 3 10 15 10 26 0 10 -4 19 -10 19
-5 0 -10 -12 -10 -26z"/>
<path d="M1620 2065 c0 -60 2 -66 15 -55 19 16 17 111 -2 118 -10 3 -13 -14
-13 -63z"/>
<path d="M1013 1805 c0 -28 4 -44 11 -42 6 2 11 21 11 42 0 21 -5 40 -11 42
-7 2 -11 -14 -11 -42z"/>
<path d="M1300 1805 c0 -25 5 -45 10 -45 6 0 10 20 10 45 0 25 -4 45 -10 45
-5 0 -10 -20 -10 -45z"/>
<path d="M730 1636 c0 -13 138 -111 191 -136 71 -32 186 -60 254 -60 119 0
272 52 371 126 106 79 131 74 -371 74 -245 0 -445 -2 -445 -4z m735 -56 c4 -7
-93 -10 -285 -10 -192 0 -289 3 -285 10 4 6 110 10 285 10 175 0 281 -4 285
-10z"/>
<path d="M4588 2323 c7 -3 16 -2 19 1 4 3 -2 6 -13 5 -11 0 -14 -3 -6 -6z"/>
<path d="M5515 1000 c3 -5 8 -10 11 -10 2 0 4 5 4 10 0 6 -5 10 -11 10 -5 0
-7 -4 -4 -10z"/>
<path d="M5580 1001 c0 -5 5 -13 10 -16 6 -3 10 -2 10 4 0 5 -4 13 -10 16 -5
3 -10 2 -10 -4z"/>
<path d="M670 710 c-9 -6 -10 -10 -3 -10 6 0 15 5 18 10 8 12 4 12 -15 0z"/>
</g>
</svg>
